<?xml version="1.0" encoding="utf-8" ?>
<svg baseProfile="tiny" height="400mm" version="1.2" viewBox="(0, 0, 239.75, 400)" width="239.75mm" xmlns="http://www.w3.org/2000/svg" xmlns:ev="http://www.w3.org/2001/xml-events" xmlns:xlink="http://www.w3.org/1999/xlink"><defs><g id="id3"><use x="0" xlink:href="#id1" y="0" /><rect fill="grey" height="22" width="26.25" x="0" y="220" /><use x="0" xlink:href="#id2" y="223" /><rect fill="grey" height="22" width="26.25" x="0" y="333" /><rect fill="grey" height="64" width="26.25" x="0" y="336" /></g><g id="id1"><rect fill="#6CB52D" height="220" width="26.25" x="0" y="0" /></g><g id="id2"><rect fill="#E20613" height="110" width="26.25" x="0" y="0" /></g><g id="id6"><use x="0" xlink:href="#id4" y="0" /><rect fill="grey" height="22" width="26.25" x="0" y="220" /><use x="0" xlink:href="#id5" y="223" /><rect fill="grey" height="22" width="26.25" x="0" y="333" /><rect fill="grey" height="64" width="26.25" x="0" y="336" /></g><g id="id4"><rect fill="#6CB52D" height="220" width="26.25" x="0" y="0" /></g><g id="id5"><rect fill="#E20613" height="110" width="26.25" x="0" y="0" /></g><g id="id10"><use x="0" xlink:href="#id7" y="0" /><rect fill="grey" height="22" width="26.25" x="0" y="198" /><use x="0" xlink:href="#id8" y="201" /><rect fill="grey" height="22" width="26.25" x="0" y="333" /><use x="0" xlink:href="#id9" y="336" /><rect fill="grey" height="22" width="26.25" x="0" y="380" /><rect fill="grey" height="17" width="26.25" x="0" y="383" /></g><g id="id7"><rect fill="#934F99" height="198" width="26.25" x="0" y="0" /></g><g id="id8"><rect fill="#000000" height="132" width="26.25" x="0" y="0" /></g><g id="id9"><rect fill="#00ACE8" height="44" width="26.25" x="0" y="0" /></g><g id="id14"><use x="0" xlink:href="#id11" y="0" /><rect fill="grey" height="22" width="26.25" x="0" y="198" /><use x="0" xlink:href="#id12" y="201" /><rect fill="grey" height="22" width="26.25" x="0" y="333" /><use x="0" xlink:href="#id13" y="336" /><rect fill="grey" height="22" width="26.25" x="0" y="380" /><rect fill="grey" height="17" width="26.25" x="0" y="383" /></g><g id="id11"><rect fill="#934F99" height="198" width="26.25" x="0" y="0" /></g><g id="id12"><rect fill="#000000" height="132" width="26.25" x="0" y="0" /></g><g id="id13"><rect fill="#00ACE8" height="44" width="26.25" x="0" y="0" /></g><g id="id18"><use x="0" xlink:href="#id15" y="0" /><rect fill="grey" height="22" width="26.25" x="0" y="176" /><use x="0" xlink:href="#id16" y="179" /><rect fill="grey" height="22" width="26.25" x="0" y="333" /><use x="0" xlink:href="#id17" y="336" /><rect fill="grey" height="22" width="26.25" x="0" y="380" /><rect fill="grey" height="17" width="26.25" x="0" y="383" /></g><g id="id15"><rect fill="#E56E02" height="176" width="26.25" x="0" y="0" /></g><g id="id16"><rect fill="#E4388C" height="154" width="26.25" x="0" y="0" /></g><g id="id17"><rect fill="#00ACE8" height="44" width="26.25" x="0" y="0" /></g><g id="id22"><use x="0" xlink:href="#id19" y="0" /><rect fill="grey" height="22" width="26.25" x="0" y="176" /><use x="0" xlink:href="#id20" y="179" /><rect fill="grey" height="22" width="26.25" x="0" y="333" /><use x="0" xlink:href="#id21" y="336" /><rect fill="grey" height="22" width="26.25" x="0" y="380" /><rect fill="grey" height="17" width="26.25" x="0" y="383" /></g><g id="id19"><rect fill="#E56E02" height="176" width="26.25" x="0" y="0" /></g><g id="id20"><rect fill="#E4388C" height="154" width="26.25" x="0" y="0" /></g><g id="id21"><rect fill="#00ACE8" height="44" width="26.25" x="0" y="0" /></g><g id="id28"><use x="0" xlink:href="#id23" y="0" /><rect fill="grey" height="22" width="26.25" x="0" y="88" /><use x="0" xlink:href="#id24" y="91" /><rect fill="grey" height="22" width="26.25" x="0" y="179" /><use x="0" xlink:href="#id25" y="182" /><rect fill="grey" height="22" width="26.25" x="0" y="248" /><use x="0" xlink:href="#id26" y="251" /><rect fill="grey" height="22" width="26.25" x="0" y="317" /><use x="0" xlink:href="#id27" y="320" /><rect fill="grey" height="22" width="26.25" x="0" y="386" /><rect fill="grey" height="11" width="26.25" x="0" y="389" /></g><g id="id23"><rect fill="white" height="88" width="26.25" x="0" y="0" /></g><g id="id24"><rect fill="white" height="88" width="26.25" x="0" y="0" /></g><g id="id25"><rect fill="#AF6D35" height="66" width="26.25" x="0" y="0" /></g><g id="id26"><rect fill="#AF6D35" height="66" width="26.25" x="0" y="0" /></g><g id="id27"><rect fill="#AF6D35" height="66" width="26.25" x="0" y="0" /></g><g id="id40"><use x="0" xlink:href="#id29" y="0" /><rect fill="grey" height="22" width="26.25" x="0" y="22" /><use x="0" xlink:href="#id30" y="25" /><rect fill="grey" height="22" width="26.25" x="0" y="47" /><use x="0" xlink:href="#id31" y="50" /><rect fill="grey" height="22" width="26.25" x="0" y="72" /><use x="0" xlink:href="#id32" y="75" /><rect fill="grey" height="22" width="26.25" x="0" y="97" /><use x="0" xlink:href="#id33" y="100" /><rect fill="grey" height="22" width="26.25" x="0" y="122" /><use x="0" xlink:href="#id34" y="125" /><rect fill="grey" height="22" width="26.25" x="0" y="147" /><use x="0" xlink:href="#id35" y="150" /><rect fill="grey" height="22" width="26.25" x="0" y="172" /><use x="0" xlink:href="#id36" y="175" /><rect fill="grey" height="22" width="26.25" x="0" y="197" /><use x="0" xlink:href="#id37" y="200" /><rect fill="grey" height="22" width="26.25" x="0" y="222" /><use x="0" xlink:href="#id38" y="225" /><rect fill="grey" height="22" width="26.25" x="0" y="247" /><use x="0" xlink:href="#id39" y="250" /><rect fill="grey" height="22" width="26.25" x="0" y="294" /><rect fill="grey" height="103" width="26.25" x="0" y="297" /></g><g id="id29"><rect fill="#FDE900" height="22" width="26.25" x="0" y="0" /></g><g id="id30"><rect fill="#FDE900" height="22" width="26.25" x="0" y="0" /></g><g id="id31"><rect fill="#FDE900" height="22" width="26.25" x="0" y="0" /></g><g id="id32"><rect fill="#FDE900" height="22" width="26.25" x="0" y="0" /></g><g id="id33"><rect fill="#FDE900" height="22" width="26.25" x="0" y="0" /></g><g id="id34"><rect fill="#FDE900" height="22" width="26.25" x="0" y="0" /></g><g id="id35"><rect fill="#FDE900" height="22" width="26.25" x="0" y="0" /></g><g id="id36"><rect fill="#FDE900" height="22" width="26.25" x="0" y="0" /></g><g id="id37"><rect fill="#FDE900" height="22" width="26.25" x="0" y="0" /></g><g id="id38"><rect fill="#FDE900" height="22" width="26.25" x="0" y="0" /></g><g id="id39"><rect fill="#00ACE8" height="44" width="26.25" x="0" y="0" /></g></defs><use x="0" xlink:href="#id3" y="0" /><use x="30.5" xlink:href="#id6" y="0" /><use x="61.0" xlink:href="#id10" y="0" /><use x="91.5" xlink:href="#id14" y="0" /><use x="122.0" xlink:href="#id18" y="0" /><use x="152.5" xlink:href="#id22" y="0" /><use x="183.0" xlink:href="#id28" y="0" /><use x="213.5" xlink:href="#id40" y="0" /></svg>