<?xml version="1.0" encoding="utf-8" ?>
<svg baseProfile="tiny" height="400mm" version="1.2" viewBox="(0, 0, 178.75, 400)" width="178.75mm" xmlns="http://www.w3.org/2000/svg" xmlns:ev="http://www.w3.org/2001/xml-events" xmlns:xlink="http://www.w3.org/1999/xlink"><defs><g id="id3"><use x="0" xlink:href="#id1" y="0" /><rect fill="grey" height="22" width="26.25" x="0" y="220" /><use x="0" xlink:href="#id2" y="223" /><rect fill="grey" height="22" width="26.25" x="0" y="333" /><rect fill="grey" height="64" width="26.25" x="0" y="336" /></g><g id="id1"><rect fill="#5EFF00" height="220" width="26.25" x="0" y="0" /></g><g id="id2"><rect fill="#FC0000" height="110" width="26.25" x="0" y="0" /></g><g id="id6"><use x="0" xlink:href="#id4" y="0" /><rect fill="grey" height="22" width="26.25" x="0" y="198" /><use x="0" xlink:href="#id5" y="201" /><rect fill="grey" height="22" width="26.25" x="0" y="333" /><rect fill="grey" height="64" width="26.25" x="0" y="336" /></g><g id="id4"><rect fill="#242EFC" height="198" width="26.25" x="0" y="0" /></g><g id="id5"><rect fill="#000000" height="132" width="26.25" x="0" y="0" /></g><g id="id9"><use x="0" xlink:href="#id7" y="0" /><rect fill="grey" height="22" width="26.25" x="0" y="176" /><use x="0" xlink:href="#id8" y="179" /><rect fill="grey" height="22" width="26.25" x="0" y="333" /><rect fill="grey" height="64" width="26.25" x="0" y="336" /></g><g id="id7"><rect fill="#FF1F03" height="176" width="26.25" x="0" y="0" /></g><g id="id8"><rect fill="#F71FFF" height="154" width="26.25" x="0" y="0" /></g><g id="id14"><use x="0" xlink:href="#id10" y="0" /><rect fill="grey" height="22" width="26.25" x="0" y="88" /><use x="0" xlink:href="#id11" y="91" /><rect fill="grey" height="22" width="26.25" x="0" y="157" /><use x="0" xlink:href="#id12" y="160" /><rect fill="grey" height="22" width="26.25" x="0" y="204" /><use x="0" xlink:href="#id13" y="207" /><rect fill="grey" height="22" width="26.25" x="0" y="317" /><rect fill="grey" height="80" width="26.25" x="0" y="320" /></g><g id="id10"><rect fill="white" height="88" width="26.25" x="0" y="0" /></g><g id="id11"><rect fill="#9C5412" height="66" width="26.25" x="0" y="0" /></g><g id="id12"><rect fill="#2BFAFF" height="44" width="26.25" x="0" y="0" /></g><g id="id13"><rect fill="#FC0000" height="110" width="26.25" x="0" y="0" /></g><g id="id21"><use x="0" xlink:href="#id15" y="0" /><rect fill="grey" height="22" width="26.25" x="0" y="88" /><use x="0" xlink:href="#id16" y="91" /><rect fill="grey" height="22" width="26.25" x="0" y="157" /><use x="0" xlink:href="#id17" y="160" /><rect fill="grey" height="22" width="26.25" x="0" y="226" /><use x="0" xlink:href="#id18" y="229" /><rect fill="grey" height="22" width="26.25" x="0" y="273" /><use x="0" xlink:href="#id19" y="276" /><rect fill="grey" height="22" width="26.25" x="0" y="320" /><use x="0" xlink:href="#id20" y="323" /><rect fill="grey" height="22" width="26.25" x="0" y="367" /><rect fill="grey" height="30" width="26.25" x="0" y="370" /></g><g id="id15"><rect fill="white" height="88" width="26.25" x="0" y="0" /></g><g id="id16"><rect fill="#9C5412" height="66" width="26.25" x="0" y="0" /></g><g id="id17"><rect fill="#9C5412" height="66" width="26.25" x="0" y="0" /></g><g id="id18"><rect fill="#2BFAFF" height="44" width="26.25" x="0" y="0" /></g><g id="id19"><rect fill="#2BFAFF" height="44" width="26.25" x="0" y="0" /></g><g id="id20"><rect fill="#2BFAFF" height="44" width="26.25" x="0" y="0" /></g><g id="id33"><use x="0" xlink:href="#id22" y="0" /><rect fill="grey" height="22" width="26.25" x="0" y="44" /><use x="0" xlink:href="#id23" y="47" /><rect fill="grey" height="22" width="26.25" x="0" y="69" /><use x="0" xlink:href="#id24" y="72" /><rect fill="grey" height="22" width="26.25" x="0" y="94" /><use x="0" xlink:href="#id25" y="97" /><rect fill="grey" height="22" width="26.25" x="0" y="119" /><use x="0" xlink:href="#id26" y="122" /><rect fill="grey" height="22" width="26.25" x="0" y="144" /><use x="0" xlink:href="#id27" y="147" /><rect fill="grey" height="22" width="26.25" x="0" y="169" /><use x="0" xlink:href="#id28" y="172" /><rect fill="grey" height="22" width="26.25" x="0" y="194" /><use x="0" xlink:href="#id29" y="197" /><rect fill="grey" height="22" width="26.25" x="0" y="219" /><use x="0" xlink:href="#id30" y="222" /><rect fill="grey" height="22" width="26.25" x="0" y="244" /><use x="0" xlink:href="#id31" y="247" /><rect fill="grey" height="22" width="26.25" x="0" y="269" /><use x="0" xlink:href="#id32" y="272" /><rect fill="grey" height="22" width="26.25" x="0" y="294" /><rect fill="grey" height="103" width="26.25" x="0" y="297" /></g><g id="id22"><rect fill="#2BFAFF" height="44" width="26.25" x="0" y="0" /></g><g id="id23"><rect fill="#F2FF05" height="22" width="26.25" x="0" y="0" /></g><g id="id24"><rect fill="#F2FF05" height="22" width="26.25" x="0" y="0" /></g><g id="id25"><rect fill="#F2FF05" height="22" width="26.25" x="0" y="0" /></g><g id="id26"><rect fill="#F2FF05" height="22" width="26.25" x="0" y="0" /></g><g id="id27"><rect fill="#F2FF05" height="22" width="26.25" x="0" y="0" /></g><g id="id28"><rect fill="#F2FF05" height="22" width="26.25" x="0" y="0" /></g><g id="id29"><rect fill="#F2FF05" height="22" width="26.25" x="0" y="0" /></g><g id="id30"><rect fill="#F2FF05" height="22" width="26.25" x="0" y="0" /></g><g id="id31"><rect fill="#F2FF05" height="22" width="26.25" x="0" y="0" /></g><g id="id32"><rect fill="#F2FF05" height="22" width="26.25" x="0" y="0" /></g></defs><use x="0" xlink:href="#id3" y="0" /><use x="30.5" xlink:href="#id6" y="0" /><use x="61.0" xlink:href="#id9" y="0" /><use x="91.5" xlink:href="#id14" y="0" /><use x="122.0" xlink:href="#id21" y="0" /><use x="152.5" xlink:href="#id33" y="0" /></svg>