<?xml version="1.0" encoding="utf-8" ?>
<svg baseProfile="tiny" height="400mm" version="1.2" viewBox="(0, 0, 178.75, 400)" width="178.75mm" xmlns="http://www.w3.org/2000/svg" xmlns:ev="http://www.w3.org/2001/xml-events" xmlns:xlink="http://www.w3.org/1999/xlink"><defs><g id="id36"><use x="0" xlink:href="#id34" y="0" /><rect fill="grey" height="22" width="26.25" x="0" y="220" /><use x="0" xlink:href="#id35" y="223" /><rect fill="grey" height="22" width="26.25" x="0" y="333" /><rect fill="grey" height="64" width="26.25" x="0" y="336" /></g><g id="id34"><rect fill="#5EFF00" height="220" width="26.25" x="0" y="0" /></g><g id="id35"><rect fill="#FC0000" height="110" width="26.25" x="0" y="0" /></g><g id="id39"><use x="0" xlink:href="#id37" y="0" /><rect fill="grey" height="22" width="26.25" x="0" y="198" /><use x="0" xlink:href="#id38" y="201" /><rect fill="grey" height="22" width="26.25" x="0" y="333" /><rect fill="grey" height="64" width="26.25" x="0" y="336" /></g><g id="id37"><rect fill="#242EFC" height="198" width="26.25" x="0" y="0" /></g><g id="id38"><rect fill="#000000" height="132" width="26.25" x="0" y="0" /></g><g id="id42"><use x="0" xlink:href="#id40" y="0" /><rect fill="grey" height="22" width="26.25" x="0" y="176" /><use x="0" xlink:href="#id41" y="179" /><rect fill="grey" height="22" width="26.25" x="0" y="333" /><rect fill="grey" height="64" width="26.25" x="0" y="336" /></g><g id="id40"><rect fill="#FF1F03" height="176" width="26.25" x="0" y="0" /></g><g id="id41"><rect fill="#F71FFF" height="154" width="26.25" x="0" y="0" /></g><g id="id47"><use x="0" xlink:href="#id43" y="0" /><rect fill="grey" height="22" width="26.25" x="0" y="88" /><use x="0" xlink:href="#id44" y="91" /><rect fill="grey" height="22" width="26.25" x="0" y="157" /><use x="0" xlink:href="#id45" y="160" /><rect fill="grey" height="22" width="26.25" x="0" y="204" /><use x="0" xlink:href="#id46" y="207" /><rect fill="grey" height="22" width="26.25" x="0" y="317" /><rect fill="grey" height="80" width="26.25" x="0" y="320" /></g><g id="id43"><rect fill="white" height="88" width="26.25" x="0" y="0" /></g><g id="id44"><rect fill="#9C5412" height="66" width="26.25" x="0" y="0" /></g><g id="id45"><rect fill="#2BFAFF" height="44" width="26.25" x="0" y="0" /></g><g id="id46"><rect fill="#FC0000" height="110" width="26.25" x="0" y="0" /></g><g id="id54"><use x="0" xlink:href="#id48" y="0" /><rect fill="grey" height="22" width="26.25" x="0" y="88" /><use x="0" xlink:href="#id49" y="91" /><rect fill="grey" height="22" width="26.25" x="0" y="157" /><use x="0" xlink:href="#id50" y="160" /><rect fill="grey" height="22" width="26.25" x="0" y="226" /><use x="0" xlink:href="#id51" y="229" /><rect fill="grey" height="22" width="26.25" x="0" y="273" /><use x="0" xlink:href="#id52" y="276" /><rect fill="grey" height="22" width="26.25" x="0" y="320" /><use x="0" xlink:href="#id53" y="323" /><rect fill="grey" height="22" width="26.25" x="0" y="367" /><rect fill="grey" height="30" width="26.25" x="0" y="370" /></g><g id="id48"><rect fill="white" height="88" width="26.25" x="0" y="0" /></g><g id="id49"><rect fill="#9C5412" height="66" width="26.25" x="0" y="0" /></g><g id="id50"><rect fill="#9C5412" height="66" width="26.25" x="0" y="0" /></g><g id="id51"><rect fill="#2BFAFF" height="44" width="26.25" x="0" y="0" /></g><g id="id52"><rect fill="#2BFAFF" height="44" width="26.25" x="0" y="0" /></g><g id="id53"><rect fill="#2BFAFF" height="44" width="26.25" x="0" y="0" /></g><g id="id66"><use x="0" xlink:href="#id55" y="0" /><rect fill="grey" height="22" width="26.25" x="0" y="44" /><use x="0" xlink:href="#id56" y="47" /><rect fill="grey" height="22" width="26.25" x="0" y="69" /><use x="0" xlink:href="#id57" y="72" /><rect fill="grey" height="22" width="26.25" x="0" y="94" /><use x="0" xlink:href="#id58" y="97" /><rect fill="grey" height="22" width="26.25" x="0" y="119" /><use x="0" xlink:href="#id59" y="122" /><rect fill="grey" height="22" width="26.25" x="0" y="144" /><use x="0" xlink:href="#id60" y="147" /><rect fill="grey" height="22" width="26.25" x="0" y="169" /><use x="0" xlink:href="#id61" y="172" /><rect fill="grey" height="22" width="26.25" x="0" y="194" /><use x="0" xlink:href="#id62" y="197" /><rect fill="grey" height="22" width="26.25" x="0" y="219" /><use x="0" xlink:href="#id63" y="222" /><rect fill="grey" height="22" width="26.25" x="0" y="244" /><use x="0" xlink:href="#id64" y="247" /><rect fill="grey" height="22" width="26.25" x="0" y="269" /><use x="0" xlink:href="#id65" y="272" /><rect fill="grey" height="22" width="26.25" x="0" y="294" /><rect fill="grey" height="103" width="26.25" x="0" y="297" /></g><g id="id55"><rect fill="#2BFAFF" height="44" width="26.25" x="0" y="0" /></g><g id="id56"><rect fill="#F2FF05" height="22" width="26.25" x="0" y="0" /></g><g id="id57"><rect fill="#F2FF05" height="22" width="26.25" x="0" y="0" /></g><g id="id58"><rect fill="#F2FF05" height="22" width="26.25" x="0" y="0" /></g><g id="id59"><rect fill="#F2FF05" height="22" width="26.25" x="0" y="0" /></g><g id="id60"><rect fill="#F2FF05" height="22" width="26.25" x="0" y="0" /></g><g id="id61"><rect fill="#F2FF05" height="22" width="26.25" x="0" y="0" /></g><g id="id62"><rect fill="#F2FF05" height="22" width="26.25" x="0" y="0" /></g><g id="id63"><rect fill="#F2FF05" height="22" width="26.25" x="0" y="0" /></g><g id="id64"><rect fill="#F2FF05" height="22" width="26.25" x="0" y="0" /></g><g id="id65"><rect fill="#F2FF05" height="22" width="26.25" x="0" y="0" /></g></defs><use x="0" xlink:href="#id36" y="0" /><use x="30.5" xlink:href="#id39" y="0" /><use x="61.0" xlink:href="#id42" y="0" /><use x="91.5" xlink:href="#id47" y="0" /><use x="122.0" xlink:href="#id54" y="0" /><use x="152.5" xlink:href="#id66" y="0" /></svg>