<?xml version="1.0" encoding="utf-8" ?>
<svg baseProfile="tiny" height="400mm" version="1.2" viewBox="(0, 0, 239.75, 400)" width="239.75mm" xmlns="http://www.w3.org/2000/svg" xmlns:ev="http://www.w3.org/2001/xml-events" xmlns:xlink="http://www.w3.org/1999/xlink"><defs><g id="id43"><use x="0" xlink:href="#id41" y="0" /><rect fill="grey" height="22" width="26.25" x="0" y="220" /><use x="0" xlink:href="#id42" y="223" /><rect fill="grey" height="22" width="26.25" x="0" y="333" /><rect fill="grey" height="64" width="26.25" x="0" y="336" /></g><g id="id41"><rect fill="#6CB52D" height="220" width="26.25" x="0" y="0" /></g><g id="id42"><rect fill="#E20613" height="110" width="26.25" x="0" y="0" /></g><g id="id46"><use x="0" xlink:href="#id44" y="0" /><rect fill="grey" height="22" width="26.25" x="0" y="220" /><use x="0" xlink:href="#id45" y="223" /><rect fill="grey" height="22" width="26.25" x="0" y="333" /><rect fill="grey" height="64" width="26.25" x="0" y="336" /></g><g id="id44"><rect fill="#6CB52D" height="220" width="26.25" x="0" y="0" /></g><g id="id45"><rect fill="#E20613" height="110" width="26.25" x="0" y="0" /></g><g id="id50"><use x="0" xlink:href="#id47" y="0" /><rect fill="grey" height="22" width="26.25" x="0" y="198" /><use x="0" xlink:href="#id48" y="201" /><rect fill="grey" height="22" width="26.25" x="0" y="333" /><use x="0" xlink:href="#id49" y="336" /><rect fill="grey" height="22" width="26.25" x="0" y="380" /><rect fill="grey" height="17" width="26.25" x="0" y="383" /></g><g id="id47"><rect fill="#934F99" height="198" width="26.25" x="0" y="0" /></g><g id="id48"><rect fill="#000000" height="132" width="26.25" x="0" y="0" /></g><g id="id49"><rect fill="#00ACE8" height="44" width="26.25" x="0" y="0" /></g><g id="id54"><use x="0" xlink:href="#id51" y="0" /><rect fill="grey" height="22" width="26.25" x="0" y="198" /><use x="0" xlink:href="#id52" y="201" /><rect fill="grey" height="22" width="26.25" x="0" y="333" /><use x="0" xlink:href="#id53" y="336" /><rect fill="grey" height="22" width="26.25" x="0" y="380" /><rect fill="grey" height="17" width="26.25" x="0" y="383" /></g><g id="id51"><rect fill="#934F99" height="198" width="26.25" x="0" y="0" /></g><g id="id52"><rect fill="#000000" height="132" width="26.25" x="0" y="0" /></g><g id="id53"><rect fill="#00ACE8" height="44" width="26.25" x="0" y="0" /></g><g id="id58"><use x="0" xlink:href="#id55" y="0" /><rect fill="grey" height="22" width="26.25" x="0" y="176" /><use x="0" xlink:href="#id56" y="179" /><rect fill="grey" height="22" width="26.25" x="0" y="333" /><use x="0" xlink:href="#id57" y="336" /><rect fill="grey" height="22" width="26.25" x="0" y="380" /><rect fill="grey" height="17" width="26.25" x="0" y="383" /></g><g id="id55"><rect fill="#E56E02" height="176" width="26.25" x="0" y="0" /></g><g id="id56"><rect fill="#E4388C" height="154" width="26.25" x="0" y="0" /></g><g id="id57"><rect fill="#00ACE8" height="44" width="26.25" x="0" y="0" /></g><g id="id62"><use x="0" xlink:href="#id59" y="0" /><rect fill="grey" height="22" width="26.25" x="0" y="176" /><use x="0" xlink:href="#id60" y="179" /><rect fill="grey" height="22" width="26.25" x="0" y="333" /><use x="0" xlink:href="#id61" y="336" /><rect fill="grey" height="22" width="26.25" x="0" y="380" /><rect fill="grey" height="17" width="26.25" x="0" y="383" /></g><g id="id59"><rect fill="#E56E02" height="176" width="26.25" x="0" y="0" /></g><g id="id60"><rect fill="#E4388C" height="154" width="26.25" x="0" y="0" /></g><g id="id61"><rect fill="#00ACE8" height="44" width="26.25" x="0" y="0" /></g><g id="id68"><use x="0" xlink:href="#id63" y="0" /><rect fill="grey" height="22" width="26.25" x="0" y="88" /><use x="0" xlink:href="#id64" y="91" /><rect fill="grey" height="22" width="26.25" x="0" y="179" /><use x="0" xlink:href="#id65" y="182" /><rect fill="grey" height="22" width="26.25" x="0" y="248" /><use x="0" xlink:href="#id66" y="251" /><rect fill="grey" height="22" width="26.25" x="0" y="317" /><use x="0" xlink:href="#id67" y="320" /><rect fill="grey" height="22" width="26.25" x="0" y="386" /><rect fill="grey" height="11" width="26.25" x="0" y="389" /></g><g id="id63"><rect fill="white" height="88" width="26.25" x="0" y="0" /></g><g id="id64"><rect fill="white" height="88" width="26.25" x="0" y="0" /></g><g id="id65"><rect fill="#AF6D35" height="66" width="26.25" x="0" y="0" /></g><g id="id66"><rect fill="#AF6D35" height="66" width="26.25" x="0" y="0" /></g><g id="id67"><rect fill="#AF6D35" height="66" width="26.25" x="0" y="0" /></g><g id="id80"><use x="0" xlink:href="#id69" y="0" /><rect fill="grey" height="22" width="26.25" x="0" y="22" /><use x="0" xlink:href="#id70" y="25" /><rect fill="grey" height="22" width="26.25" x="0" y="47" /><use x="0" xlink:href="#id71" y="50" /><rect fill="grey" height="22" width="26.25" x="0" y="72" /><use x="0" xlink:href="#id72" y="75" /><rect fill="grey" height="22" width="26.25" x="0" y="97" /><use x="0" xlink:href="#id73" y="100" /><rect fill="grey" height="22" width="26.25" x="0" y="122" /><use x="0" xlink:href="#id74" y="125" /><rect fill="grey" height="22" width="26.25" x="0" y="147" /><use x="0" xlink:href="#id75" y="150" /><rect fill="grey" height="22" width="26.25" x="0" y="172" /><use x="0" xlink:href="#id76" y="175" /><rect fill="grey" height="22" width="26.25" x="0" y="197" /><use x="0" xlink:href="#id77" y="200" /><rect fill="grey" height="22" width="26.25" x="0" y="222" /><use x="0" xlink:href="#id78" y="225" /><rect fill="grey" height="22" width="26.25" x="0" y="247" /><use x="0" xlink:href="#id79" y="250" /><rect fill="grey" height="22" width="26.25" x="0" y="294" /><rect fill="grey" height="103" width="26.25" x="0" y="297" /></g><g id="id69"><rect fill="#FDE900" height="22" width="26.25" x="0" y="0" /></g><g id="id70"><rect fill="#FDE900" height="22" width="26.25" x="0" y="0" /></g><g id="id71"><rect fill="#FDE900" height="22" width="26.25" x="0" y="0" /></g><g id="id72"><rect fill="#FDE900" height="22" width="26.25" x="0" y="0" /></g><g id="id73"><rect fill="#FDE900" height="22" width="26.25" x="0" y="0" /></g><g id="id74"><rect fill="#FDE900" height="22" width="26.25" x="0" y="0" /></g><g id="id75"><rect fill="#FDE900" height="22" width="26.25" x="0" y="0" /></g><g id="id76"><rect fill="#FDE900" height="22" width="26.25" x="0" y="0" /></g><g id="id77"><rect fill="#FDE900" height="22" width="26.25" x="0" y="0" /></g><g id="id78"><rect fill="#FDE900" height="22" width="26.25" x="0" y="0" /></g><g id="id79"><rect fill="#00ACE8" height="44" width="26.25" x="0" y="0" /></g></defs><use x="0" xlink:href="#id43" y="0" /><use x="30.5" xlink:href="#id46" y="0" /><use x="61.0" xlink:href="#id50" y="0" /><use x="91.5" xlink:href="#id54" y="0" /><use x="122.0" xlink:href="#id58" y="0" /><use x="152.5" xlink:href="#id62" y="0" /><use x="183.0" xlink:href="#id68" y="0" /><use x="213.5" xlink:href="#id80" y="0" /></svg>