<?xml version="1.0" encoding="utf-8" ?>
<svg baseProfile="tiny" height="400mm" version="1.2" viewBox="(0, 0, 178.75, 400)" width="178.75mm" xmlns="http://www.w3.org/2000/svg" xmlns:ev="http://www.w3.org/2001/xml-events" xmlns:xlink="http://www.w3.org/1999/xlink"><defs><g id="id102"><use x="0" xlink:href="#id100" y="0" /><rect fill="grey" height="22" width="26.25" x="0" y="220" /><use x="0" xlink:href="#id101" y="223" /><rect fill="grey" height="22" width="26.25" x="0" y="333" /><rect fill="grey" height="64" width="26.25" x="0" y="336" /></g><g id="id100"><rect fill="#5EFF00" height="220" width="26.25" x="0" y="0" /></g><g id="id101"><rect fill="#FC0000" height="110" width="26.25" x="0" y="0" /></g><g id="id105"><use x="0" xlink:href="#id103" y="0" /><rect fill="grey" height="22" width="26.25" x="0" y="198" /><use x="0" xlink:href="#id104" y="201" /><rect fill="grey" height="22" width="26.25" x="0" y="333" /><rect fill="grey" height="64" width="26.25" x="0" y="336" /></g><g id="id103"><rect fill="#242EFC" height="198" width="26.25" x="0" y="0" /></g><g id="id104"><rect fill="#000000" height="132" width="26.25" x="0" y="0" /></g><g id="id108"><use x="0" xlink:href="#id106" y="0" /><rect fill="grey" height="22" width="26.25" x="0" y="176" /><use x="0" xlink:href="#id107" y="179" /><rect fill="grey" height="22" width="26.25" x="0" y="333" /><rect fill="grey" height="64" width="26.25" x="0" y="336" /></g><g id="id106"><rect fill="#FF1F03" height="176" width="26.25" x="0" y="0" /></g><g id="id107"><rect fill="#F71FFF" height="154" width="26.25" x="0" y="0" /></g><g id="id113"><use x="0" xlink:href="#id109" y="0" /><rect fill="grey" height="22" width="26.25" x="0" y="88" /><use x="0" xlink:href="#id110" y="91" /><rect fill="grey" height="22" width="26.25" x="0" y="157" /><use x="0" xlink:href="#id111" y="160" /><rect fill="grey" height="22" width="26.25" x="0" y="204" /><use x="0" xlink:href="#id112" y="207" /><rect fill="grey" height="22" width="26.25" x="0" y="317" /><rect fill="grey" height="80" width="26.25" x="0" y="320" /></g><g id="id109"><rect fill="white" height="88" width="26.25" x="0" y="0" /></g><g id="id110"><rect fill="#9C5412" height="66" width="26.25" x="0" y="0" /></g><g id="id111"><rect fill="#2BFAFF" height="44" width="26.25" x="0" y="0" /></g><g id="id112"><rect fill="#FC0000" height="110" width="26.25" x="0" y="0" /></g><g id="id120"><use x="0" xlink:href="#id114" y="0" /><rect fill="grey" height="22" width="26.25" x="0" y="88" /><use x="0" xlink:href="#id115" y="91" /><rect fill="grey" height="22" width="26.25" x="0" y="157" /><use x="0" xlink:href="#id116" y="160" /><rect fill="grey" height="22" width="26.25" x="0" y="226" /><use x="0" xlink:href="#id117" y="229" /><rect fill="grey" height="22" width="26.25" x="0" y="273" /><use x="0" xlink:href="#id118" y="276" /><rect fill="grey" height="22" width="26.25" x="0" y="320" /><use x="0" xlink:href="#id119" y="323" /><rect fill="grey" height="22" width="26.25" x="0" y="367" /><rect fill="grey" height="30" width="26.25" x="0" y="370" /></g><g id="id114"><rect fill="white" height="88" width="26.25" x="0" y="0" /></g><g id="id115"><rect fill="#9C5412" height="66" width="26.25" x="0" y="0" /></g><g id="id116"><rect fill="#9C5412" height="66" width="26.25" x="0" y="0" /></g><g id="id117"><rect fill="#2BFAFF" height="44" width="26.25" x="0" y="0" /></g><g id="id118"><rect fill="#2BFAFF" height="44" width="26.25" x="0" y="0" /></g><g id="id119"><rect fill="#2BFAFF" height="44" width="26.25" x="0" y="0" /></g><g id="id132"><use x="0" xlink:href="#id121" y="0" /><rect fill="grey" height="22" width="26.25" x="0" y="44" /><use x="0" xlink:href="#id122" y="47" /><rect fill="grey" height="22" width="26.25" x="0" y="69" /><use x="0" xlink:href="#id123" y="72" /><rect fill="grey" height="22" width="26.25" x="0" y="94" /><use x="0" xlink:href="#id124" y="97" /><rect fill="grey" height="22" width="26.25" x="0" y="119" /><use x="0" xlink:href="#id125" y="122" /><rect fill="grey" height="22" width="26.25" x="0" y="144" /><use x="0" xlink:href="#id126" y="147" /><rect fill="grey" height="22" width="26.25" x="0" y="169" /><use x="0" xlink:href="#id127" y="172" /><rect fill="grey" height="22" width="26.25" x="0" y="194" /><use x="0" xlink:href="#id128" y="197" /><rect fill="grey" height="22" width="26.25" x="0" y="219" /><use x="0" xlink:href="#id129" y="222" /><rect fill="grey" height="22" width="26.25" x="0" y="244" /><use x="0" xlink:href="#id130" y="247" /><rect fill="grey" height="22" width="26.25" x="0" y="269" /><use x="0" xlink:href="#id131" y="272" /><rect fill="grey" height="22" width="26.25" x="0" y="294" /><rect fill="grey" height="103" width="26.25" x="0" y="297" /></g><g id="id121"><rect fill="#2BFAFF" height="44" width="26.25" x="0" y="0" /></g><g id="id122"><rect fill="#F2FF05" height="22" width="26.25" x="0" y="0" /></g><g id="id123"><rect fill="#F2FF05" height="22" width="26.25" x="0" y="0" /></g><g id="id124"><rect fill="#F2FF05" height="22" width="26.25" x="0" y="0" /></g><g id="id125"><rect fill="#F2FF05" height="22" width="26.25" x="0" y="0" /></g><g id="id126"><rect fill="#F2FF05" height="22" width="26.25" x="0" y="0" /></g><g id="id127"><rect fill="#F2FF05" height="22" width="26.25" x="0" y="0" /></g><g id="id128"><rect fill="#F2FF05" height="22" width="26.25" x="0" y="0" /></g><g id="id129"><rect fill="#F2FF05" height="22" width="26.25" x="0" y="0" /></g><g id="id130"><rect fill="#F2FF05" height="22" width="26.25" x="0" y="0" /></g><g id="id131"><rect fill="#F2FF05" height="22" width="26.25" x="0" y="0" /></g></defs><use x="0" xlink:href="#id102" y="0" /><use x="30.5" xlink:href="#id105" y="0" /><use x="61.0" xlink:href="#id108" y="0" /><use x="91.5" xlink:href="#id113" y="0" /><use x="122.0" xlink:href="#id120" y="0" /><use x="152.5" xlink:href="#id132" y="0" /></svg>