<?xml version="1.0" encoding="utf-8" ?>
<svg baseProfile="tiny" height="400mm" version="1.2" viewBox="(0, 0, 239.75, 400)" width="239.75mm" xmlns="http://www.w3.org/2000/svg" xmlns:ev="http://www.w3.org/2001/xml-events" xmlns:xlink="http://www.w3.org/1999/xlink"><defs><g id="id83"><use x="0" xlink:href="#id81" y="0" /><rect fill="grey" height="22" width="26.25" x="0" y="220" /><use x="0" xlink:href="#id82" y="223" /><rect fill="grey" height="22" width="26.25" x="0" y="333" /><rect fill="grey" height="64" width="26.25" x="0" y="336" /></g><g id="id81"><rect fill="#6CB52D" height="220" width="26.25" x="0" y="0" /></g><g id="id82"><rect fill="#E20613" height="110" width="26.25" x="0" y="0" /></g><g id="id86"><use x="0" xlink:href="#id84" y="0" /><rect fill="grey" height="22" width="26.25" x="0" y="220" /><use x="0" xlink:href="#id85" y="223" /><rect fill="grey" height="22" width="26.25" x="0" y="333" /><rect fill="grey" height="64" width="26.25" x="0" y="336" /></g><g id="id84"><rect fill="#6CB52D" height="220" width="26.25" x="0" y="0" /></g><g id="id85"><rect fill="#E20613" height="110" width="26.25" x="0" y="0" /></g><g id="id90"><use x="0" xlink:href="#id87" y="0" /><rect fill="grey" height="22" width="26.25" x="0" y="198" /><use x="0" xlink:href="#id88" y="201" /><rect fill="grey" height="22" width="26.25" x="0" y="333" /><use x="0" xlink:href="#id89" y="336" /><rect fill="grey" height="22" width="26.25" x="0" y="380" /><rect fill="grey" height="17" width="26.25" x="0" y="383" /></g><g id="id87"><rect fill="#934F99" height="198" width="26.25" x="0" y="0" /></g><g id="id88"><rect fill="#000000" height="132" width="26.25" x="0" y="0" /></g><g id="id89"><rect fill="#00ACE8" height="44" width="26.25" x="0" y="0" /></g><g id="id94"><use x="0" xlink:href="#id91" y="0" /><rect fill="grey" height="22" width="26.25" x="0" y="198" /><use x="0" xlink:href="#id92" y="201" /><rect fill="grey" height="22" width="26.25" x="0" y="333" /><use x="0" xlink:href="#id93" y="336" /><rect fill="grey" height="22" width="26.25" x="0" y="380" /><rect fill="grey" height="17" width="26.25" x="0" y="383" /></g><g id="id91"><rect fill="#934F99" height="198" width="26.25" x="0" y="0" /></g><g id="id92"><rect fill="#000000" height="132" width="26.25" x="0" y="0" /></g><g id="id93"><rect fill="#00ACE8" height="44" width="26.25" x="0" y="0" /></g><g id="id98"><use x="0" xlink:href="#id95" y="0" /><rect fill="grey" height="22" width="26.25" x="0" y="176" /><use x="0" xlink:href="#id96" y="179" /><rect fill="grey" height="22" width="26.25" x="0" y="333" /><use x="0" xlink:href="#id97" y="336" /><rect fill="grey" height="22" width="26.25" x="0" y="380" /><rect fill="grey" height="17" width="26.25" x="0" y="383" /></g><g id="id95"><rect fill="#E56E02" height="176" width="26.25" x="0" y="0" /></g><g id="id96"><rect fill="#E4388C" height="154" width="26.25" x="0" y="0" /></g><g id="id97"><rect fill="#00ACE8" height="44" width="26.25" x="0" y="0" /></g><g id="id102"><use x="0" xlink:href="#id99" y="0" /><rect fill="grey" height="22" width="26.25" x="0" y="176" /><use x="0" xlink:href="#id100" y="179" /><rect fill="grey" height="22" width="26.25" x="0" y="333" /><use x="0" xlink:href="#id101" y="336" /><rect fill="grey" height="22" width="26.25" x="0" y="380" /><rect fill="grey" height="17" width="26.25" x="0" y="383" /></g><g id="id99"><rect fill="#E56E02" height="176" width="26.25" x="0" y="0" /></g><g id="id100"><rect fill="#E4388C" height="154" width="26.25" x="0" y="0" /></g><g id="id101"><rect fill="#00ACE8" height="44" width="26.25" x="0" y="0" /></g><g id="id108"><use x="0" xlink:href="#id103" y="0" /><rect fill="grey" height="22" width="26.25" x="0" y="88" /><use x="0" xlink:href="#id104" y="91" /><rect fill="grey" height="22" width="26.25" x="0" y="179" /><use x="0" xlink:href="#id105" y="182" /><rect fill="grey" height="22" width="26.25" x="0" y="248" /><use x="0" xlink:href="#id106" y="251" /><rect fill="grey" height="22" width="26.25" x="0" y="317" /><use x="0" xlink:href="#id107" y="320" /><rect fill="grey" height="22" width="26.25" x="0" y="386" /><rect fill="grey" height="11" width="26.25" x="0" y="389" /></g><g id="id103"><rect fill="white" height="88" width="26.25" x="0" y="0" /></g><g id="id104"><rect fill="white" height="88" width="26.25" x="0" y="0" /></g><g id="id105"><rect fill="#AF6D35" height="66" width="26.25" x="0" y="0" /></g><g id="id106"><rect fill="#AF6D35" height="66" width="26.25" x="0" y="0" /></g><g id="id107"><rect fill="#AF6D35" height="66" width="26.25" x="0" y="0" /></g><g id="id120"><use x="0" xlink:href="#id109" y="0" /><rect fill="grey" height="22" width="26.25" x="0" y="22" /><use x="0" xlink:href="#id110" y="25" /><rect fill="grey" height="22" width="26.25" x="0" y="47" /><use x="0" xlink:href="#id111" y="50" /><rect fill="grey" height="22" width="26.25" x="0" y="72" /><use x="0" xlink:href="#id112" y="75" /><rect fill="grey" height="22" width="26.25" x="0" y="97" /><use x="0" xlink:href="#id113" y="100" /><rect fill="grey" height="22" width="26.25" x="0" y="122" /><use x="0" xlink:href="#id114" y="125" /><rect fill="grey" height="22" width="26.25" x="0" y="147" /><use x="0" xlink:href="#id115" y="150" /><rect fill="grey" height="22" width="26.25" x="0" y="172" /><use x="0" xlink:href="#id116" y="175" /><rect fill="grey" height="22" width="26.25" x="0" y="197" /><use x="0" xlink:href="#id117" y="200" /><rect fill="grey" height="22" width="26.25" x="0" y="222" /><use x="0" xlink:href="#id118" y="225" /><rect fill="grey" height="22" width="26.25" x="0" y="247" /><use x="0" xlink:href="#id119" y="250" /><rect fill="grey" height="22" width="26.25" x="0" y="294" /><rect fill="grey" height="103" width="26.25" x="0" y="297" /></g><g id="id109"><rect fill="#FDE900" height="22" width="26.25" x="0" y="0" /></g><g id="id110"><rect fill="#FDE900" height="22" width="26.25" x="0" y="0" /></g><g id="id111"><rect fill="#FDE900" height="22" width="26.25" x="0" y="0" /></g><g id="id112"><rect fill="#FDE900" height="22" width="26.25" x="0" y="0" /></g><g id="id113"><rect fill="#FDE900" height="22" width="26.25" x="0" y="0" /></g><g id="id114"><rect fill="#FDE900" height="22" width="26.25" x="0" y="0" /></g><g id="id115"><rect fill="#FDE900" height="22" width="26.25" x="0" y="0" /></g><g id="id116"><rect fill="#FDE900" height="22" width="26.25" x="0" y="0" /></g><g id="id117"><rect fill="#FDE900" height="22" width="26.25" x="0" y="0" /></g><g id="id118"><rect fill="#FDE900" height="22" width="26.25" x="0" y="0" /></g><g id="id119"><rect fill="#00ACE8" height="44" width="26.25" x="0" y="0" /></g></defs><use x="0" xlink:href="#id83" y="0" /><use x="30.5" xlink:href="#id86" y="0" /><use x="61.0" xlink:href="#id90" y="0" /><use x="91.5" xlink:href="#id94" y="0" /><use x="122.0" xlink:href="#id98" y="0" /><use x="152.5" xlink:href="#id102" y="0" /><use x="183.0" xlink:href="#id108" y="0" /><use x="213.5" xlink:href="#id120" y="0" /></svg>