<?xml version="1.0" encoding="utf-8" ?>
<svg baseProfile="tiny" height="400mm" version="1.2" viewBox="(0, 0, 239.75, 400)" width="239.75mm" xmlns="http://www.w3.org/2000/svg" xmlns:ev="http://www.w3.org/2001/xml-events" xmlns:xlink="http://www.w3.org/1999/xlink"><defs><g id="id123"><use x="0" xlink:href="#id121" y="0" /><rect fill="grey" height="22" width="26.25" x="0" y="220" /><use x="0" xlink:href="#id122" y="223" /><rect fill="grey" height="22" width="26.25" x="0" y="333" /><rect fill="grey" height="64" width="26.25" x="0" y="336" /></g><g id="id121"><rect fill="#6CB52D" height="220" width="26.25" x="0" y="0" /></g><g id="id122"><rect fill="#E20613" height="110" width="26.25" x="0" y="0" /></g><g id="id126"><use x="0" xlink:href="#id124" y="0" /><rect fill="grey" height="22" width="26.25" x="0" y="220" /><use x="0" xlink:href="#id125" y="223" /><rect fill="grey" height="22" width="26.25" x="0" y="333" /><rect fill="grey" height="64" width="26.25" x="0" y="336" /></g><g id="id124"><rect fill="#6CB52D" height="220" width="26.25" x="0" y="0" /></g><g id="id125"><rect fill="#E20613" height="110" width="26.25" x="0" y="0" /></g><g id="id130"><use x="0" xlink:href="#id127" y="0" /><rect fill="grey" height="22" width="26.25" x="0" y="198" /><use x="0" xlink:href="#id128" y="201" /><rect fill="grey" height="22" width="26.25" x="0" y="333" /><use x="0" xlink:href="#id129" y="336" /><rect fill="grey" height="22" width="26.25" x="0" y="380" /><rect fill="grey" height="17" width="26.25" x="0" y="383" /></g><g id="id127"><rect fill="#934F99" height="198" width="26.25" x="0" y="0" /></g><g id="id128"><rect fill="#000000" height="132" width="26.25" x="0" y="0" /></g><g id="id129"><rect fill="#00ACE8" height="44" width="26.25" x="0" y="0" /></g><g id="id134"><use x="0" xlink:href="#id131" y="0" /><rect fill="grey" height="22" width="26.25" x="0" y="198" /><use x="0" xlink:href="#id132" y="201" /><rect fill="grey" height="22" width="26.25" x="0" y="333" /><use x="0" xlink:href="#id133" y="336" /><rect fill="grey" height="22" width="26.25" x="0" y="380" /><rect fill="grey" height="17" width="26.25" x="0" y="383" /></g><g id="id131"><rect fill="#934F99" height="198" width="26.25" x="0" y="0" /></g><g id="id132"><rect fill="#000000" height="132" width="26.25" x="0" y="0" /></g><g id="id133"><rect fill="#00ACE8" height="44" width="26.25" x="0" y="0" /></g><g id="id138"><use x="0" xlink:href="#id135" y="0" /><rect fill="grey" height="22" width="26.25" x="0" y="176" /><use x="0" xlink:href="#id136" y="179" /><rect fill="grey" height="22" width="26.25" x="0" y="333" /><use x="0" xlink:href="#id137" y="336" /><rect fill="grey" height="22" width="26.25" x="0" y="380" /><rect fill="grey" height="17" width="26.25" x="0" y="383" /></g><g id="id135"><rect fill="#E56E02" height="176" width="26.25" x="0" y="0" /></g><g id="id136"><rect fill="#E4388C" height="154" width="26.25" x="0" y="0" /></g><g id="id137"><rect fill="#00ACE8" height="44" width="26.25" x="0" y="0" /></g><g id="id142"><use x="0" xlink:href="#id139" y="0" /><rect fill="grey" height="22" width="26.25" x="0" y="176" /><use x="0" xlink:href="#id140" y="179" /><rect fill="grey" height="22" width="26.25" x="0" y="333" /><use x="0" xlink:href="#id141" y="336" /><rect fill="grey" height="22" width="26.25" x="0" y="380" /><rect fill="grey" height="17" width="26.25" x="0" y="383" /></g><g id="id139"><rect fill="#E56E02" height="176" width="26.25" x="0" y="0" /></g><g id="id140"><rect fill="#E4388C" height="154" width="26.25" x="0" y="0" /></g><g id="id141"><rect fill="#00ACE8" height="44" width="26.25" x="0" y="0" /></g><g id="id148"><use x="0" xlink:href="#id143" y="0" /><rect fill="grey" height="22" width="26.25" x="0" y="88" /><use x="0" xlink:href="#id144" y="91" /><rect fill="grey" height="22" width="26.25" x="0" y="179" /><use x="0" xlink:href="#id145" y="182" /><rect fill="grey" height="22" width="26.25" x="0" y="248" /><use x="0" xlink:href="#id146" y="251" /><rect fill="grey" height="22" width="26.25" x="0" y="317" /><use x="0" xlink:href="#id147" y="320" /><rect fill="grey" height="22" width="26.25" x="0" y="386" /><rect fill="grey" height="11" width="26.25" x="0" y="389" /></g><g id="id143"><rect fill="white" height="88" width="26.25" x="0" y="0" /></g><g id="id144"><rect fill="white" height="88" width="26.25" x="0" y="0" /></g><g id="id145"><rect fill="#AF6D35" height="66" width="26.25" x="0" y="0" /></g><g id="id146"><rect fill="#AF6D35" height="66" width="26.25" x="0" y="0" /></g><g id="id147"><rect fill="#AF6D35" height="66" width="26.25" x="0" y="0" /></g><g id="id160"><use x="0" xlink:href="#id149" y="0" /><rect fill="grey" height="22" width="26.25" x="0" y="22" /><use x="0" xlink:href="#id150" y="25" /><rect fill="grey" height="22" width="26.25" x="0" y="47" /><use x="0" xlink:href="#id151" y="50" /><rect fill="grey" height="22" width="26.25" x="0" y="72" /><use x="0" xlink:href="#id152" y="75" /><rect fill="grey" height="22" width="26.25" x="0" y="97" /><use x="0" xlink:href="#id153" y="100" /><rect fill="grey" height="22" width="26.25" x="0" y="122" /><use x="0" xlink:href="#id154" y="125" /><rect fill="grey" height="22" width="26.25" x="0" y="147" /><use x="0" xlink:href="#id155" y="150" /><rect fill="grey" height="22" width="26.25" x="0" y="172" /><use x="0" xlink:href="#id156" y="175" /><rect fill="grey" height="22" width="26.25" x="0" y="197" /><use x="0" xlink:href="#id157" y="200" /><rect fill="grey" height="22" width="26.25" x="0" y="222" /><use x="0" xlink:href="#id158" y="225" /><rect fill="grey" height="22" width="26.25" x="0" y="247" /><use x="0" xlink:href="#id159" y="250" /><rect fill="grey" height="22" width="26.25" x="0" y="294" /><rect fill="grey" height="103" width="26.25" x="0" y="297" /></g><g id="id149"><rect fill="#FDE900" height="22" width="26.25" x="0" y="0" /></g><g id="id150"><rect fill="#FDE900" height="22" width="26.25" x="0" y="0" /></g><g id="id151"><rect fill="#FDE900" height="22" width="26.25" x="0" y="0" /></g><g id="id152"><rect fill="#FDE900" height="22" width="26.25" x="0" y="0" /></g><g id="id153"><rect fill="#FDE900" height="22" width="26.25" x="0" y="0" /></g><g id="id154"><rect fill="#FDE900" height="22" width="26.25" x="0" y="0" /></g><g id="id155"><rect fill="#FDE900" height="22" width="26.25" x="0" y="0" /></g><g id="id156"><rect fill="#FDE900" height="22" width="26.25" x="0" y="0" /></g><g id="id157"><rect fill="#FDE900" height="22" width="26.25" x="0" y="0" /></g><g id="id158"><rect fill="#FDE900" height="22" width="26.25" x="0" y="0" /></g><g id="id159"><rect fill="#00ACE8" height="44" width="26.25" x="0" y="0" /></g></defs><use x="0" xlink:href="#id123" y="0" /><use x="30.5" xlink:href="#id126" y="0" /><use x="61.0" xlink:href="#id130" y="0" /><use x="91.5" xlink:href="#id134" y="0" /><use x="122.0" xlink:href="#id138" y="0" /><use x="152.5" xlink:href="#id142" y="0" /><use x="183.0" xlink:href="#id148" y="0" /><use x="213.5" xlink:href="#id160" y="0" /></svg>