<?xml version="1.0" encoding="utf-8" ?>
<svg baseProfile="tiny" height="400mm" version="1.2" viewBox="(0, 0, 178.75, 400)" width="178.75mm" xmlns="http://www.w3.org/2000/svg" xmlns:ev="http://www.w3.org/2001/xml-events" xmlns:xlink="http://www.w3.org/1999/xlink"><defs><g id="id69"><use x="0" xlink:href="#id67" y="0" /><rect fill="grey" height="22" width="26.25" x="0" y="220" /><use x="0" xlink:href="#id68" y="223" /><rect fill="grey" height="22" width="26.25" x="0" y="333" /><rect fill="grey" height="64" width="26.25" x="0" y="336" /></g><g id="id67"><rect fill="#5EFF00" height="220" width="26.25" x="0" y="0" /></g><g id="id68"><rect fill="#FC0000" height="110" width="26.25" x="0" y="0" /></g><g id="id72"><use x="0" xlink:href="#id70" y="0" /><rect fill="grey" height="22" width="26.25" x="0" y="198" /><use x="0" xlink:href="#id71" y="201" /><rect fill="grey" height="22" width="26.25" x="0" y="333" /><rect fill="grey" height="64" width="26.25" x="0" y="336" /></g><g id="id70"><rect fill="#242EFC" height="198" width="26.25" x="0" y="0" /></g><g id="id71"><rect fill="#000000" height="132" width="26.25" x="0" y="0" /></g><g id="id75"><use x="0" xlink:href="#id73" y="0" /><rect fill="grey" height="22" width="26.25" x="0" y="176" /><use x="0" xlink:href="#id74" y="179" /><rect fill="grey" height="22" width="26.25" x="0" y="333" /><rect fill="grey" height="64" width="26.25" x="0" y="336" /></g><g id="id73"><rect fill="#FF1F03" height="176" width="26.25" x="0" y="0" /></g><g id="id74"><rect fill="#F71FFF" height="154" width="26.25" x="0" y="0" /></g><g id="id80"><use x="0" xlink:href="#id76" y="0" /><rect fill="grey" height="22" width="26.25" x="0" y="88" /><use x="0" xlink:href="#id77" y="91" /><rect fill="grey" height="22" width="26.25" x="0" y="157" /><use x="0" xlink:href="#id78" y="160" /><rect fill="grey" height="22" width="26.25" x="0" y="204" /><use x="0" xlink:href="#id79" y="207" /><rect fill="grey" height="22" width="26.25" x="0" y="317" /><rect fill="grey" height="80" width="26.25" x="0" y="320" /></g><g id="id76"><rect fill="white" height="88" width="26.25" x="0" y="0" /></g><g id="id77"><rect fill="#9C5412" height="66" width="26.25" x="0" y="0" /></g><g id="id78"><rect fill="#2BFAFF" height="44" width="26.25" x="0" y="0" /></g><g id="id79"><rect fill="#FC0000" height="110" width="26.25" x="0" y="0" /></g><g id="id87"><use x="0" xlink:href="#id81" y="0" /><rect fill="grey" height="22" width="26.25" x="0" y="88" /><use x="0" xlink:href="#id82" y="91" /><rect fill="grey" height="22" width="26.25" x="0" y="157" /><use x="0" xlink:href="#id83" y="160" /><rect fill="grey" height="22" width="26.25" x="0" y="226" /><use x="0" xlink:href="#id84" y="229" /><rect fill="grey" height="22" width="26.25" x="0" y="273" /><use x="0" xlink:href="#id85" y="276" /><rect fill="grey" height="22" width="26.25" x="0" y="320" /><use x="0" xlink:href="#id86" y="323" /><rect fill="grey" height="22" width="26.25" x="0" y="367" /><rect fill="grey" height="30" width="26.25" x="0" y="370" /></g><g id="id81"><rect fill="white" height="88" width="26.25" x="0" y="0" /></g><g id="id82"><rect fill="#9C5412" height="66" width="26.25" x="0" y="0" /></g><g id="id83"><rect fill="#9C5412" height="66" width="26.25" x="0" y="0" /></g><g id="id84"><rect fill="#2BFAFF" height="44" width="26.25" x="0" y="0" /></g><g id="id85"><rect fill="#2BFAFF" height="44" width="26.25" x="0" y="0" /></g><g id="id86"><rect fill="#2BFAFF" height="44" width="26.25" x="0" y="0" /></g><g id="id99"><use x="0" xlink:href="#id88" y="0" /><rect fill="grey" height="22" width="26.25" x="0" y="44" /><use x="0" xlink:href="#id89" y="47" /><rect fill="grey" height="22" width="26.25" x="0" y="69" /><use x="0" xlink:href="#id90" y="72" /><rect fill="grey" height="22" width="26.25" x="0" y="94" /><use x="0" xlink:href="#id91" y="97" /><rect fill="grey" height="22" width="26.25" x="0" y="119" /><use x="0" xlink:href="#id92" y="122" /><rect fill="grey" height="22" width="26.25" x="0" y="144" /><use x="0" xlink:href="#id93" y="147" /><rect fill="grey" height="22" width="26.25" x="0" y="169" /><use x="0" xlink:href="#id94" y="172" /><rect fill="grey" height="22" width="26.25" x="0" y="194" /><use x="0" xlink:href="#id95" y="197" /><rect fill="grey" height="22" width="26.25" x="0" y="219" /><use x="0" xlink:href="#id96" y="222" /><rect fill="grey" height="22" width="26.25" x="0" y="244" /><use x="0" xlink:href="#id97" y="247" /><rect fill="grey" height="22" width="26.25" x="0" y="269" /><use x="0" xlink:href="#id98" y="272" /><rect fill="grey" height="22" width="26.25" x="0" y="294" /><rect fill="grey" height="103" width="26.25" x="0" y="297" /></g><g id="id88"><rect fill="#2BFAFF" height="44" width="26.25" x="0" y="0" /></g><g id="id89"><rect fill="#F2FF05" height="22" width="26.25" x="0" y="0" /></g><g id="id90"><rect fill="#F2FF05" height="22" width="26.25" x="0" y="0" /></g><g id="id91"><rect fill="#F2FF05" height="22" width="26.25" x="0" y="0" /></g><g id="id92"><rect fill="#F2FF05" height="22" width="26.25" x="0" y="0" /></g><g id="id93"><rect fill="#F2FF05" height="22" width="26.25" x="0" y="0" /></g><g id="id94"><rect fill="#F2FF05" height="22" width="26.25" x="0" y="0" /></g><g id="id95"><rect fill="#F2FF05" height="22" width="26.25" x="0" y="0" /></g><g id="id96"><rect fill="#F2FF05" height="22" width="26.25" x="0" y="0" /></g><g id="id97"><rect fill="#F2FF05" height="22" width="26.25" x="0" y="0" /></g><g id="id98"><rect fill="#F2FF05" height="22" width="26.25" x="0" y="0" /></g></defs><use x="0" xlink:href="#id69" y="0" /><use x="30.5" xlink:href="#id72" y="0" /><use x="61.0" xlink:href="#id75" y="0" /><use x="91.5" xlink:href="#id80" y="0" /><use x="122.0" xlink:href="#id87" y="0" /><use x="152.5" xlink:href="#id99" y="0" /></svg>