<?xml version="1.0" encoding="utf-8" ?>
<svg baseProfile="tiny" height="400mm" version="1.2" viewBox="(0, 0, 178.75, 400)" width="178.75mm" xmlns="http://www.w3.org/2000/svg" xmlns:ev="http://www.w3.org/2001/xml-events" xmlns:xlink="http://www.w3.org/1999/xlink"><defs><g id="id2"><use x="0" xlink:href="#id1" y="0" /><rect fill="grey" height="4" width="26.25" x="0" y="396" /><rect fill="grey" height="1" width="26.25" x="0" y="399" /></g><g id="id1" /><g id="id4"><use x="0" xlink:href="#id3" y="0" /><rect fill="grey" height="4" width="26.25" x="0" y="396" /><rect fill="grey" height="1" width="26.25" x="0" y="399" /></g><g id="id3" /><g id="id6"><use x="0" xlink:href="#id5" y="0" /><rect fill="grey" height="4" width="26.25" x="0" y="396" /><rect fill="grey" height="1" width="26.25" x="0" y="399" /></g><g id="id5" /><g id="id8"><use x="0" xlink:href="#id7" y="0" /><rect fill="grey" height="4" width="26.25" x="0" y="396" /><rect fill="grey" height="1" width="26.25" x="0" y="399" /></g><g id="id7" /><g id="id10"><use x="0" xlink:href="#id9" y="0" /><rect fill="grey" height="4" width="26.25" x="0" y="396" /><rect fill="grey" height="1" width="26.25" x="0" y="399" /></g><g id="id9" /><g id="id12"><use x="0" xlink:href="#id11" y="0" /><rect fill="grey" height="4" width="26.25" x="0" y="220" /><rect fill="grey" height="177" width="26.25" x="0" y="223" /></g><g id="id11" /></defs><use x="0" xlink:href="#id2" y="0" /><use x="30.5" xlink:href="#id4" y="0" /><use x="61.0" xlink:href="#id6" y="0" /><use x="91.5" xlink:href="#id8" y="0" /><use x="122.0" xlink:href="#id10" y="0" /><use x="152.5" xlink:href="#id12" y="0" /></svg>