<?xml version="1.0" encoding="utf-8" ?>
<svg baseProfile="tiny" height="400mm" version="1.2" viewBox="(0, 0, 178.75, 400)" width="178.75mm" xmlns="http://www.w3.org/2000/svg" xmlns:ev="http://www.w3.org/2001/xml-events" xmlns:xlink="http://www.w3.org/1999/xlink"><defs><g id="id1030"><use x="0" xlink:href="#id1029" y="0" /><rect fill="grey" height="4" width="26.25" x="0" y="396" /><rect fill="grey" height="1" width="26.25" x="0" y="399" /></g><g id="id1029"><line stroke="black" stroke-width="0.5" x1="0" x2="26.25" y1="22" y2="22" /><line stroke="black" stroke-width="0.5" x1="0" x2="26.25" y1="44" y2="44" /><line stroke="black" stroke-width="0.5" x1="0" x2="26.25" y1="66" y2="66" /><line stroke="black" stroke-width="0.5" x1="0" x2="26.25" y1="88" y2="88" /><line stroke="black" stroke-width="0.5" x1="0" x2="26.25" y1="110" y2="110" /><line stroke="black" stroke-width="0.5" x1="0" x2="26.25" y1="132" y2="132" /><line stroke="black" stroke-width="0.5" x1="0" x2="26.25" y1="154" y2="154" /><line stroke="black" stroke-width="0.5" x1="0" x2="26.25" y1="176" y2="176" /><line stroke="black" stroke-width="0.5" x1="0" x2="26.25" y1="198" y2="198" /><line stroke="black" stroke-width="0.5" x1="0" x2="26.25" y1="220" y2="220" /><line stroke="black" stroke-width="0.5" x1="0" x2="26.25" y1="242" y2="242" /><line stroke="black" stroke-width="0.5" x1="0" x2="26.25" y1="264" y2="264" /><line stroke="black" stroke-width="0.5" x1="0" x2="26.25" y1="286" y2="286" /><line stroke="black" stroke-width="0.5" x1="0" x2="26.25" y1="308" y2="308" /><line stroke="black" stroke-width="0.5" x1="0" x2="26.25" y1="330" y2="330" /><line stroke="black" stroke-width="0.5" x1="0" x2="26.25" y1="352" y2="352" /><line stroke="black" stroke-width="0.5" x1="0" x2="26.25" y1="374" y2="374" /></g><g id="id1032"><use x="0" xlink:href="#id1031" y="0" /><rect fill="grey" height="4" width="26.25" x="0" y="396" /><rect fill="grey" height="1" width="26.25" x="0" y="399" /></g><g id="id1031"><line stroke="black" stroke-width="0.5" x1="0" x2="26.25" y1="22" y2="22" /><line stroke="black" stroke-width="0.5" x1="0" x2="26.25" y1="44" y2="44" /><line stroke="black" stroke-width="0.5" x1="0" x2="26.25" y1="66" y2="66" /><line stroke="black" stroke-width="0.5" x1="0" x2="26.25" y1="88" y2="88" /><line stroke="black" stroke-width="0.5" x1="0" x2="26.25" y1="110" y2="110" /><line stroke="black" stroke-width="0.5" x1="0" x2="26.25" y1="132" y2="132" /><line stroke="black" stroke-width="0.5" x1="0" x2="26.25" y1="154" y2="154" /><line stroke="black" stroke-width="0.5" x1="0" x2="26.25" y1="176" y2="176" /><line stroke="black" stroke-width="0.5" x1="0" x2="26.25" y1="198" y2="198" /><line stroke="black" stroke-width="0.5" x1="0" x2="26.25" y1="220" y2="220" /><line stroke="black" stroke-width="0.5" x1="0" x2="26.25" y1="242" y2="242" /><line stroke="black" stroke-width="0.5" x1="0" x2="26.25" y1="264" y2="264" /><line stroke="black" stroke-width="0.5" x1="0" x2="26.25" y1="286" y2="286" /><line stroke="black" stroke-width="0.5" x1="0" x2="26.25" y1="308" y2="308" /><line stroke="black" stroke-width="0.5" x1="0" x2="26.25" y1="330" y2="330" /><line stroke="black" stroke-width="0.5" x1="0" x2="26.25" y1="352" y2="352" /><line stroke="black" stroke-width="0.5" x1="0" x2="26.25" y1="374" y2="374" /></g><g id="id1034"><use x="0" xlink:href="#id1033" y="0" /><rect fill="grey" height="4" width="26.25" x="0" y="396" /><rect fill="grey" height="1" width="26.25" x="0" y="399" /></g><g id="id1033"><line stroke="black" stroke-width="0.5" x1="0" x2="26.25" y1="22" y2="22" /><line stroke="black" stroke-width="0.5" x1="0" x2="26.25" y1="44" y2="44" /><line stroke="black" stroke-width="0.5" x1="0" x2="26.25" y1="66" y2="66" /><line stroke="black" stroke-width="0.5" x1="0" x2="26.25" y1="88" y2="88" /><line stroke="black" stroke-width="0.5" x1="0" x2="26.25" y1="110" y2="110" /><line stroke="black" stroke-width="0.5" x1="0" x2="26.25" y1="132" y2="132" /><line stroke="black" stroke-width="0.5" x1="0" x2="26.25" y1="154" y2="154" /><line stroke="black" stroke-width="0.5" x1="0" x2="26.25" y1="176" y2="176" /><line stroke="black" stroke-width="0.5" x1="0" x2="26.25" y1="198" y2="198" /><line stroke="black" stroke-width="0.5" x1="0" x2="26.25" y1="220" y2="220" /><line stroke="black" stroke-width="0.5" x1="0" x2="26.25" y1="242" y2="242" /><line stroke="black" stroke-width="0.5" x1="0" x2="26.25" y1="264" y2="264" /><line stroke="black" stroke-width="0.5" x1="0" x2="26.25" y1="286" y2="286" /><line stroke="black" stroke-width="0.5" x1="0" x2="26.25" y1="308" y2="308" /><line stroke="black" stroke-width="0.5" x1="0" x2="26.25" y1="330" y2="330" /><line stroke="black" stroke-width="0.5" x1="0" x2="26.25" y1="352" y2="352" /><line stroke="black" stroke-width="0.5" x1="0" x2="26.25" y1="374" y2="374" /></g><g id="id1036"><use x="0" xlink:href="#id1035" y="0" /><rect fill="grey" height="4" width="26.25" x="0" y="396" /><rect fill="grey" height="1" width="26.25" x="0" y="399" /></g><g id="id1035"><line stroke="black" stroke-width="0.5" x1="0" x2="26.25" y1="22" y2="22" /><line stroke="black" stroke-width="0.5" x1="0" x2="26.25" y1="44" y2="44" /><line stroke="black" stroke-width="0.5" x1="0" x2="26.25" y1="66" y2="66" /><line stroke="black" stroke-width="0.5" x1="0" x2="26.25" y1="88" y2="88" /><line stroke="black" stroke-width="0.5" x1="0" x2="26.25" y1="110" y2="110" /><line stroke="black" stroke-width="0.5" x1="0" x2="26.25" y1="132" y2="132" /><line stroke="black" stroke-width="0.5" x1="0" x2="26.25" y1="154" y2="154" /><line stroke="black" stroke-width="0.5" x1="0" x2="26.25" y1="176" y2="176" /><line stroke="black" stroke-width="0.5" x1="0" x2="26.25" y1="198" y2="198" /><line stroke="black" stroke-width="0.5" x1="0" x2="26.25" y1="220" y2="220" /><line stroke="black" stroke-width="0.5" x1="0" x2="26.25" y1="242" y2="242" /><line stroke="black" stroke-width="0.5" x1="0" x2="26.25" y1="264" y2="264" /><line stroke="black" stroke-width="0.5" x1="0" x2="26.25" y1="286" y2="286" /><line stroke="black" stroke-width="0.5" x1="0" x2="26.25" y1="308" y2="308" /><line stroke="black" stroke-width="0.5" x1="0" x2="26.25" y1="330" y2="330" /><line stroke="black" stroke-width="0.5" x1="0" x2="26.25" y1="352" y2="352" /><line stroke="black" stroke-width="0.5" x1="0" x2="26.25" y1="374" y2="374" /></g><g id="id1038"><use x="0" xlink:href="#id1037" y="0" /><rect fill="grey" height="4" width="26.25" x="0" y="396" /><rect fill="grey" height="1" width="26.25" x="0" y="399" /></g><g id="id1037"><line stroke="black" stroke-width="0.5" x1="0" x2="26.25" y1="22" y2="22" /><line stroke="black" stroke-width="0.5" x1="0" x2="26.25" y1="44" y2="44" /><line stroke="black" stroke-width="0.5" x1="0" x2="26.25" y1="66" y2="66" /><line stroke="black" stroke-width="0.5" x1="0" x2="26.25" y1="88" y2="88" /><line stroke="black" stroke-width="0.5" x1="0" x2="26.25" y1="110" y2="110" /><line stroke="black" stroke-width="0.5" x1="0" x2="26.25" y1="132" y2="132" /><line stroke="black" stroke-width="0.5" x1="0" x2="26.25" y1="154" y2="154" /><line stroke="black" stroke-width="0.5" x1="0" x2="26.25" y1="176" y2="176" /><line stroke="black" stroke-width="0.5" x1="0" x2="26.25" y1="198" y2="198" /><line stroke="black" stroke-width="0.5" x1="0" x2="26.25" y1="220" y2="220" /><line stroke="black" stroke-width="0.5" x1="0" x2="26.25" y1="242" y2="242" /><line stroke="black" stroke-width="0.5" x1="0" x2="26.25" y1="264" y2="264" /><line stroke="black" stroke-width="0.5" x1="0" x2="26.25" y1="286" y2="286" /><line stroke="black" stroke-width="0.5" x1="0" x2="26.25" y1="308" y2="308" /><line stroke="black" stroke-width="0.5" x1="0" x2="26.25" y1="330" y2="330" /><line stroke="black" stroke-width="0.5" x1="0" x2="26.25" y1="352" y2="352" /><line stroke="black" stroke-width="0.5" x1="0" x2="26.25" y1="374" y2="374" /></g><g id="id1040"><use x="0" xlink:href="#id1039" y="0" /><rect fill="grey" height="4" width="26.25" x="0" y="220" /><rect fill="grey" height="177" width="26.25" x="0" y="223" /></g><g id="id1039"><line stroke="black" stroke-width="0.5" x1="0" x2="26.25" y1="22" y2="22" /><line stroke="black" stroke-width="0.5" x1="0" x2="26.25" y1="44" y2="44" /><line stroke="black" stroke-width="0.5" x1="0" x2="26.25" y1="66" y2="66" /><line stroke="black" stroke-width="0.5" x1="0" x2="26.25" y1="88" y2="88" /><line stroke="black" stroke-width="0.5" x1="0" x2="26.25" y1="110" y2="110" /><line stroke="black" stroke-width="0.5" x1="0" x2="26.25" y1="132" y2="132" /><line stroke="black" stroke-width="0.5" x1="0" x2="26.25" y1="154" y2="154" /><line stroke="black" stroke-width="0.5" x1="0" x2="26.25" y1="176" y2="176" /><line stroke="black" stroke-width="0.5" x1="0" x2="26.25" y1="198" y2="198" /></g></defs><use x="0" xlink:href="#id1030" y="0" /><use x="30.5" xlink:href="#id1032" y="0" /><use x="61.0" xlink:href="#id1034" y="0" /><use x="91.5" xlink:href="#id1036" y="0" /><use x="122.0" xlink:href="#id1038" y="0" /><use x="152.5" xlink:href="#id1040" y="0" /></svg>