<?xml version="1.0" encoding="utf-8" ?>
<svg baseProfile="tiny" height="400mm" version="1.2" viewBox="(0, 0, 178.75, 400)" width="178.75mm" xmlns="http://www.w3.org/2000/svg" xmlns:ev="http://www.w3.org/2001/xml-events" xmlns:xlink="http://www.w3.org/1999/xlink"><defs><g id="id26"><use x="0" xlink:href="#id25" y="0" /><rect fill="grey" height="4" width="26.25" x="0" y="396" /><rect fill="grey" height="1" width="26.25" x="0" y="399" /></g><g id="id25"><line stroke="black" stroke-width="0.5" x1="0" x2="26.25" y1="22" y2="22" /><line stroke="black" stroke-width="0.5" x1="0" x2="26.25" y1="44" y2="44" /><line stroke="black" stroke-width="0.5" x1="0" x2="26.25" y1="66" y2="66" /><line stroke="black" stroke-width="0.5" x1="0" x2="26.25" y1="88" y2="88" /><line stroke="black" stroke-width="0.5" x1="0" x2="26.25" y1="110" y2="110" /><line stroke="black" stroke-width="0.5" x1="0" x2="26.25" y1="132" y2="132" /><line stroke="black" stroke-width="0.5" x1="0" x2="26.25" y1="154" y2="154" /><line stroke="black" stroke-width="0.5" x1="0" x2="26.25" y1="176" y2="176" /><line stroke="black" stroke-width="0.5" x1="0" x2="26.25" y1="198" y2="198" /><line stroke="black" stroke-width="0.5" x1="0" x2="26.25" y1="220" y2="220" /><line stroke="black" stroke-width="0.5" x1="0" x2="26.25" y1="242" y2="242" /><line stroke="black" stroke-width="0.5" x1="0" x2="26.25" y1="264" y2="264" /><line stroke="black" stroke-width="0.5" x1="0" x2="26.25" y1="286" y2="286" /><line stroke="black" stroke-width="0.5" x1="0" x2="26.25" y1="308" y2="308" /><line stroke="black" stroke-width="0.5" x1="0" x2="26.25" y1="330" y2="330" /><line stroke="black" stroke-width="0.5" x1="0" x2="26.25" y1="352" y2="352" /><line stroke="black" stroke-width="0.5" x1="0" x2="26.25" y1="374" y2="374" /></g><g id="id28"><use x="0" xlink:href="#id27" y="0" /><rect fill="grey" height="4" width="26.25" x="0" y="396" /><rect fill="grey" height="1" width="26.25" x="0" y="399" /></g><g id="id27"><line stroke="black" stroke-width="0.5" x1="0" x2="26.25" y1="22" y2="22" /><line stroke="black" stroke-width="0.5" x1="0" x2="26.25" y1="44" y2="44" /><line stroke="black" stroke-width="0.5" x1="0" x2="26.25" y1="66" y2="66" /><line stroke="black" stroke-width="0.5" x1="0" x2="26.25" y1="88" y2="88" /><line stroke="black" stroke-width="0.5" x1="0" x2="26.25" y1="110" y2="110" /><line stroke="black" stroke-width="0.5" x1="0" x2="26.25" y1="132" y2="132" /><line stroke="black" stroke-width="0.5" x1="0" x2="26.25" y1="154" y2="154" /><line stroke="black" stroke-width="0.5" x1="0" x2="26.25" y1="176" y2="176" /><line stroke="black" stroke-width="0.5" x1="0" x2="26.25" y1="198" y2="198" /><line stroke="black" stroke-width="0.5" x1="0" x2="26.25" y1="220" y2="220" /><line stroke="black" stroke-width="0.5" x1="0" x2="26.25" y1="242" y2="242" /><line stroke="black" stroke-width="0.5" x1="0" x2="26.25" y1="264" y2="264" /><line stroke="black" stroke-width="0.5" x1="0" x2="26.25" y1="286" y2="286" /><line stroke="black" stroke-width="0.5" x1="0" x2="26.25" y1="308" y2="308" /><line stroke="black" stroke-width="0.5" x1="0" x2="26.25" y1="330" y2="330" /><line stroke="black" stroke-width="0.5" x1="0" x2="26.25" y1="352" y2="352" /><line stroke="black" stroke-width="0.5" x1="0" x2="26.25" y1="374" y2="374" /></g><g id="id30"><use x="0" xlink:href="#id29" y="0" /><rect fill="grey" height="4" width="26.25" x="0" y="396" /><rect fill="grey" height="1" width="26.25" x="0" y="399" /></g><g id="id29"><line stroke="black" stroke-width="0.5" x1="0" x2="26.25" y1="22" y2="22" /><line stroke="black" stroke-width="0.5" x1="0" x2="26.25" y1="44" y2="44" /><line stroke="black" stroke-width="0.5" x1="0" x2="26.25" y1="66" y2="66" /><line stroke="black" stroke-width="0.5" x1="0" x2="26.25" y1="88" y2="88" /><line stroke="black" stroke-width="0.5" x1="0" x2="26.25" y1="110" y2="110" /><line stroke="black" stroke-width="0.5" x1="0" x2="26.25" y1="132" y2="132" /><line stroke="black" stroke-width="0.5" x1="0" x2="26.25" y1="154" y2="154" /><line stroke="black" stroke-width="0.5" x1="0" x2="26.25" y1="176" y2="176" /><line stroke="black" stroke-width="0.5" x1="0" x2="26.25" y1="198" y2="198" /><line stroke="black" stroke-width="0.5" x1="0" x2="26.25" y1="220" y2="220" /><line stroke="black" stroke-width="0.5" x1="0" x2="26.25" y1="242" y2="242" /><line stroke="black" stroke-width="0.5" x1="0" x2="26.25" y1="264" y2="264" /><line stroke="black" stroke-width="0.5" x1="0" x2="26.25" y1="286" y2="286" /><line stroke="black" stroke-width="0.5" x1="0" x2="26.25" y1="308" y2="308" /><line stroke="black" stroke-width="0.5" x1="0" x2="26.25" y1="330" y2="330" /><line stroke="black" stroke-width="0.5" x1="0" x2="26.25" y1="352" y2="352" /><line stroke="black" stroke-width="0.5" x1="0" x2="26.25" y1="374" y2="374" /></g><g id="id32"><use x="0" xlink:href="#id31" y="0" /><rect fill="grey" height="4" width="26.25" x="0" y="396" /><rect fill="grey" height="1" width="26.25" x="0" y="399" /></g><g id="id31"><line stroke="black" stroke-width="0.5" x1="0" x2="26.25" y1="22" y2="22" /><line stroke="black" stroke-width="0.5" x1="0" x2="26.25" y1="44" y2="44" /><line stroke="black" stroke-width="0.5" x1="0" x2="26.25" y1="66" y2="66" /><line stroke="black" stroke-width="0.5" x1="0" x2="26.25" y1="88" y2="88" /><line stroke="black" stroke-width="0.5" x1="0" x2="26.25" y1="110" y2="110" /><line stroke="black" stroke-width="0.5" x1="0" x2="26.25" y1="132" y2="132" /><line stroke="black" stroke-width="0.5" x1="0" x2="26.25" y1="154" y2="154" /><line stroke="black" stroke-width="0.5" x1="0" x2="26.25" y1="176" y2="176" /><line stroke="black" stroke-width="0.5" x1="0" x2="26.25" y1="198" y2="198" /><line stroke="black" stroke-width="0.5" x1="0" x2="26.25" y1="220" y2="220" /><line stroke="black" stroke-width="0.5" x1="0" x2="26.25" y1="242" y2="242" /><line stroke="black" stroke-width="0.5" x1="0" x2="26.25" y1="264" y2="264" /><line stroke="black" stroke-width="0.5" x1="0" x2="26.25" y1="286" y2="286" /><line stroke="black" stroke-width="0.5" x1="0" x2="26.25" y1="308" y2="308" /><line stroke="black" stroke-width="0.5" x1="0" x2="26.25" y1="330" y2="330" /><line stroke="black" stroke-width="0.5" x1="0" x2="26.25" y1="352" y2="352" /><line stroke="black" stroke-width="0.5" x1="0" x2="26.25" y1="374" y2="374" /></g><g id="id34"><use x="0" xlink:href="#id33" y="0" /><rect fill="grey" height="4" width="26.25" x="0" y="396" /><rect fill="grey" height="1" width="26.25" x="0" y="399" /></g><g id="id33"><line stroke="black" stroke-width="0.5" x1="0" x2="26.25" y1="22" y2="22" /><line stroke="black" stroke-width="0.5" x1="0" x2="26.25" y1="44" y2="44" /><line stroke="black" stroke-width="0.5" x1="0" x2="26.25" y1="66" y2="66" /><line stroke="black" stroke-width="0.5" x1="0" x2="26.25" y1="88" y2="88" /><line stroke="black" stroke-width="0.5" x1="0" x2="26.25" y1="110" y2="110" /><line stroke="black" stroke-width="0.5" x1="0" x2="26.25" y1="132" y2="132" /><line stroke="black" stroke-width="0.5" x1="0" x2="26.25" y1="154" y2="154" /><line stroke="black" stroke-width="0.5" x1="0" x2="26.25" y1="176" y2="176" /><line stroke="black" stroke-width="0.5" x1="0" x2="26.25" y1="198" y2="198" /><line stroke="black" stroke-width="0.5" x1="0" x2="26.25" y1="220" y2="220" /><line stroke="black" stroke-width="0.5" x1="0" x2="26.25" y1="242" y2="242" /><line stroke="black" stroke-width="0.5" x1="0" x2="26.25" y1="264" y2="264" /><line stroke="black" stroke-width="0.5" x1="0" x2="26.25" y1="286" y2="286" /><line stroke="black" stroke-width="0.5" x1="0" x2="26.25" y1="308" y2="308" /><line stroke="black" stroke-width="0.5" x1="0" x2="26.25" y1="330" y2="330" /><line stroke="black" stroke-width="0.5" x1="0" x2="26.25" y1="352" y2="352" /><line stroke="black" stroke-width="0.5" x1="0" x2="26.25" y1="374" y2="374" /></g><g id="id36"><use x="0" xlink:href="#id35" y="0" /><rect fill="grey" height="4" width="26.25" x="0" y="220" /><rect fill="grey" height="177" width="26.25" x="0" y="223" /></g><g id="id35"><line stroke="black" stroke-width="0.5" x1="0" x2="26.25" y1="22" y2="22" /><line stroke="black" stroke-width="0.5" x1="0" x2="26.25" y1="44" y2="44" /><line stroke="black" stroke-width="0.5" x1="0" x2="26.25" y1="66" y2="66" /><line stroke="black" stroke-width="0.5" x1="0" x2="26.25" y1="88" y2="88" /><line stroke="black" stroke-width="0.5" x1="0" x2="26.25" y1="110" y2="110" /><line stroke="black" stroke-width="0.5" x1="0" x2="26.25" y1="132" y2="132" /><line stroke="black" stroke-width="0.5" x1="0" x2="26.25" y1="154" y2="154" /><line stroke="black" stroke-width="0.5" x1="0" x2="26.25" y1="176" y2="176" /><line stroke="black" stroke-width="0.5" x1="0" x2="26.25" y1="198" y2="198" /></g></defs><use x="0" xlink:href="#id26" y="0" /><use x="30.5" xlink:href="#id28" y="0" /><use x="61.0" xlink:href="#id30" y="0" /><use x="91.5" xlink:href="#id32" y="0" /><use x="122.0" xlink:href="#id34" y="0" /><use x="152.5" xlink:href="#id36" y="0" /></svg>