<?xml version="1.0" encoding="utf-8" ?>
<svg baseProfile="tiny" height="400mm" version="1.2" viewBox="(0, 0, 178.75, 400)" width="178.75mm" xmlns="http://www.w3.org/2000/svg" xmlns:ev="http://www.w3.org/2001/xml-events" xmlns:xlink="http://www.w3.org/1999/xlink"><defs><g id="id14"><use x="0" xlink:href="#id13" y="0" /><rect fill="grey" height="4" width="26.25" x="0" y="396" /><rect fill="grey" height="1" width="26.25" x="0" y="399" /></g><g id="id13"><line stroke="black" stroke-width="0.5" x1="0" x2="26.25" y1="22" y2="22" /><line stroke="black" stroke-width="0.5" x1="0" x2="26.25" y1="44" y2="44" /><line stroke="black" stroke-width="0.5" x1="0" x2="26.25" y1="66" y2="66" /><line stroke="black" stroke-width="0.5" x1="0" x2="26.25" y1="88" y2="88" /><line stroke="black" stroke-width="0.5" x1="0" x2="26.25" y1="110" y2="110" /><line stroke="black" stroke-width="0.5" x1="0" x2="26.25" y1="132" y2="132" /><line stroke="black" stroke-width="0.5" x1="0" x2="26.25" y1="154" y2="154" /><line stroke="black" stroke-width="0.5" x1="0" x2="26.25" y1="176" y2="176" /><line stroke="black" stroke-width="0.5" x1="0" x2="26.25" y1="198" y2="198" /><line stroke="black" stroke-width="0.5" x1="0" x2="26.25" y1="220" y2="220" /><line stroke="black" stroke-width="0.5" x1="0" x2="26.25" y1="242" y2="242" /><line stroke="black" stroke-width="0.5" x1="0" x2="26.25" y1="264" y2="264" /><line stroke="black" stroke-width="0.5" x1="0" x2="26.25" y1="286" y2="286" /><line stroke="black" stroke-width="0.5" x1="0" x2="26.25" y1="308" y2="308" /><line stroke="black" stroke-width="0.5" x1="0" x2="26.25" y1="330" y2="330" /><line stroke="black" stroke-width="0.5" x1="0" x2="26.25" y1="352" y2="352" /><line stroke="black" stroke-width="0.5" x1="0" x2="26.25" y1="374" y2="374" /></g><g id="id16"><use x="0" xlink:href="#id15" y="0" /><rect fill="grey" height="4" width="26.25" x="0" y="396" /><rect fill="grey" height="1" width="26.25" x="0" y="399" /></g><g id="id15"><line stroke="black" stroke-width="0.5" x1="0" x2="26.25" y1="22" y2="22" /><line stroke="black" stroke-width="0.5" x1="0" x2="26.25" y1="44" y2="44" /><line stroke="black" stroke-width="0.5" x1="0" x2="26.25" y1="66" y2="66" /><line stroke="black" stroke-width="0.5" x1="0" x2="26.25" y1="88" y2="88" /><line stroke="black" stroke-width="0.5" x1="0" x2="26.25" y1="110" y2="110" /><line stroke="black" stroke-width="0.5" x1="0" x2="26.25" y1="132" y2="132" /><line stroke="black" stroke-width="0.5" x1="0" x2="26.25" y1="154" y2="154" /><line stroke="black" stroke-width="0.5" x1="0" x2="26.25" y1="176" y2="176" /><line stroke="black" stroke-width="0.5" x1="0" x2="26.25" y1="198" y2="198" /><line stroke="black" stroke-width="0.5" x1="0" x2="26.25" y1="220" y2="220" /><line stroke="black" stroke-width="0.5" x1="0" x2="26.25" y1="242" y2="242" /><line stroke="black" stroke-width="0.5" x1="0" x2="26.25" y1="264" y2="264" /><line stroke="black" stroke-width="0.5" x1="0" x2="26.25" y1="286" y2="286" /><line stroke="black" stroke-width="0.5" x1="0" x2="26.25" y1="308" y2="308" /><line stroke="black" stroke-width="0.5" x1="0" x2="26.25" y1="330" y2="330" /><line stroke="black" stroke-width="0.5" x1="0" x2="26.25" y1="352" y2="352" /><line stroke="black" stroke-width="0.5" x1="0" x2="26.25" y1="374" y2="374" /></g><g id="id18"><use x="0" xlink:href="#id17" y="0" /><rect fill="grey" height="4" width="26.25" x="0" y="396" /><rect fill="grey" height="1" width="26.25" x="0" y="399" /></g><g id="id17"><line stroke="black" stroke-width="0.5" x1="0" x2="26.25" y1="22" y2="22" /><line stroke="black" stroke-width="0.5" x1="0" x2="26.25" y1="44" y2="44" /><line stroke="black" stroke-width="0.5" x1="0" x2="26.25" y1="66" y2="66" /><line stroke="black" stroke-width="0.5" x1="0" x2="26.25" y1="88" y2="88" /><line stroke="black" stroke-width="0.5" x1="0" x2="26.25" y1="110" y2="110" /><line stroke="black" stroke-width="0.5" x1="0" x2="26.25" y1="132" y2="132" /><line stroke="black" stroke-width="0.5" x1="0" x2="26.25" y1="154" y2="154" /><line stroke="black" stroke-width="0.5" x1="0" x2="26.25" y1="176" y2="176" /><line stroke="black" stroke-width="0.5" x1="0" x2="26.25" y1="198" y2="198" /><line stroke="black" stroke-width="0.5" x1="0" x2="26.25" y1="220" y2="220" /><line stroke="black" stroke-width="0.5" x1="0" x2="26.25" y1="242" y2="242" /><line stroke="black" stroke-width="0.5" x1="0" x2="26.25" y1="264" y2="264" /><line stroke="black" stroke-width="0.5" x1="0" x2="26.25" y1="286" y2="286" /><line stroke="black" stroke-width="0.5" x1="0" x2="26.25" y1="308" y2="308" /><line stroke="black" stroke-width="0.5" x1="0" x2="26.25" y1="330" y2="330" /><line stroke="black" stroke-width="0.5" x1="0" x2="26.25" y1="352" y2="352" /><line stroke="black" stroke-width="0.5" x1="0" x2="26.25" y1="374" y2="374" /></g><g id="id20"><use x="0" xlink:href="#id19" y="0" /><rect fill="grey" height="4" width="26.25" x="0" y="396" /><rect fill="grey" height="1" width="26.25" x="0" y="399" /></g><g id="id19"><line stroke="black" stroke-width="0.5" x1="0" x2="26.25" y1="22" y2="22" /><line stroke="black" stroke-width="0.5" x1="0" x2="26.25" y1="44" y2="44" /><line stroke="black" stroke-width="0.5" x1="0" x2="26.25" y1="66" y2="66" /><line stroke="black" stroke-width="0.5" x1="0" x2="26.25" y1="88" y2="88" /><line stroke="black" stroke-width="0.5" x1="0" x2="26.25" y1="110" y2="110" /><line stroke="black" stroke-width="0.5" x1="0" x2="26.25" y1="132" y2="132" /><line stroke="black" stroke-width="0.5" x1="0" x2="26.25" y1="154" y2="154" /><line stroke="black" stroke-width="0.5" x1="0" x2="26.25" y1="176" y2="176" /><line stroke="black" stroke-width="0.5" x1="0" x2="26.25" y1="198" y2="198" /><line stroke="black" stroke-width="0.5" x1="0" x2="26.25" y1="220" y2="220" /><line stroke="black" stroke-width="0.5" x1="0" x2="26.25" y1="242" y2="242" /><line stroke="black" stroke-width="0.5" x1="0" x2="26.25" y1="264" y2="264" /><line stroke="black" stroke-width="0.5" x1="0" x2="26.25" y1="286" y2="286" /><line stroke="black" stroke-width="0.5" x1="0" x2="26.25" y1="308" y2="308" /><line stroke="black" stroke-width="0.5" x1="0" x2="26.25" y1="330" y2="330" /><line stroke="black" stroke-width="0.5" x1="0" x2="26.25" y1="352" y2="352" /><line stroke="black" stroke-width="0.5" x1="0" x2="26.25" y1="374" y2="374" /></g><g id="id22"><use x="0" xlink:href="#id21" y="0" /><rect fill="grey" height="4" width="26.25" x="0" y="396" /><rect fill="grey" height="1" width="26.25" x="0" y="399" /></g><g id="id21"><line stroke="black" stroke-width="0.5" x1="0" x2="26.25" y1="22" y2="22" /><line stroke="black" stroke-width="0.5" x1="0" x2="26.25" y1="44" y2="44" /><line stroke="black" stroke-width="0.5" x1="0" x2="26.25" y1="66" y2="66" /><line stroke="black" stroke-width="0.5" x1="0" x2="26.25" y1="88" y2="88" /><line stroke="black" stroke-width="0.5" x1="0" x2="26.25" y1="110" y2="110" /><line stroke="black" stroke-width="0.5" x1="0" x2="26.25" y1="132" y2="132" /><line stroke="black" stroke-width="0.5" x1="0" x2="26.25" y1="154" y2="154" /><line stroke="black" stroke-width="0.5" x1="0" x2="26.25" y1="176" y2="176" /><line stroke="black" stroke-width="0.5" x1="0" x2="26.25" y1="198" y2="198" /><line stroke="black" stroke-width="0.5" x1="0" x2="26.25" y1="220" y2="220" /><line stroke="black" stroke-width="0.5" x1="0" x2="26.25" y1="242" y2="242" /><line stroke="black" stroke-width="0.5" x1="0" x2="26.25" y1="264" y2="264" /><line stroke="black" stroke-width="0.5" x1="0" x2="26.25" y1="286" y2="286" /><line stroke="black" stroke-width="0.5" x1="0" x2="26.25" y1="308" y2="308" /><line stroke="black" stroke-width="0.5" x1="0" x2="26.25" y1="330" y2="330" /><line stroke="black" stroke-width="0.5" x1="0" x2="26.25" y1="352" y2="352" /><line stroke="black" stroke-width="0.5" x1="0" x2="26.25" y1="374" y2="374" /></g><g id="id24"><use x="0" xlink:href="#id23" y="0" /><rect fill="grey" height="4" width="26.25" x="0" y="220" /><rect fill="grey" height="177" width="26.25" x="0" y="223" /></g><g id="id23"><line stroke="black" stroke-width="0.5" x1="0" x2="26.25" y1="22" y2="22" /><line stroke="black" stroke-width="0.5" x1="0" x2="26.25" y1="44" y2="44" /><line stroke="black" stroke-width="0.5" x1="0" x2="26.25" y1="66" y2="66" /><line stroke="black" stroke-width="0.5" x1="0" x2="26.25" y1="88" y2="88" /><line stroke="black" stroke-width="0.5" x1="0" x2="26.25" y1="110" y2="110" /><line stroke="black" stroke-width="0.5" x1="0" x2="26.25" y1="132" y2="132" /><line stroke="black" stroke-width="0.5" x1="0" x2="26.25" y1="154" y2="154" /><line stroke="black" stroke-width="0.5" x1="0" x2="26.25" y1="176" y2="176" /><line stroke="black" stroke-width="0.5" x1="0" x2="26.25" y1="198" y2="198" /></g></defs><use x="0" xlink:href="#id14" y="0" /><use x="30.5" xlink:href="#id16" y="0" /><use x="61.0" xlink:href="#id18" y="0" /><use x="91.5" xlink:href="#id20" y="0" /><use x="122.0" xlink:href="#id22" y="0" /><use x="152.5" xlink:href="#id24" y="0" /></svg>