<?xml version="1.0" encoding="utf-8" ?>
<svg baseProfile="tiny" height="400mm" version="1.2" viewBox="(0, 0, 178.75, 400)" width="178.75mm" xmlns="http://www.w3.org/2000/svg" xmlns:ev="http://www.w3.org/2001/xml-events" xmlns:xlink="http://www.w3.org/1999/xlink"><defs><g id="id2"><use x="0" xlink:href="#id1" y="0" /><rect fill="grey" height="4" width="26.25" x="0" y="396" /><rect fill="grey" height="1" width="26.25" x="0" y="399" /></g><g id="id1"><line stroke="black" stroke-width="0.5" x1="0" x2="26.25" y1="22" y2="22" /><line stroke="black" stroke-width="0.5" x1="0" x2="26.25" y1="44" y2="44" /><line stroke="black" stroke-width="0.5" x1="0" x2="26.25" y1="66" y2="66" /><line stroke="black" stroke-width="0.5" x1="0" x2="26.25" y1="88" y2="88" /><line stroke="black" stroke-width="0.5" x1="0" x2="26.25" y1="110" y2="110" /><line stroke="black" stroke-width="0.5" x1="0" x2="26.25" y1="132" y2="132" /><line stroke="black" stroke-width="0.5" x1="0" x2="26.25" y1="154" y2="154" /><line stroke="black" stroke-width="0.5" x1="0" x2="26.25" y1="176" y2="176" /><line stroke="black" stroke-width="0.5" x1="0" x2="26.25" y1="198" y2="198" /><line stroke="black" stroke-width="0.5" x1="0" x2="26.25" y1="220" y2="220" /><line stroke="black" stroke-width="0.5" x1="0" x2="26.25" y1="242" y2="242" /><line stroke="black" stroke-width="0.5" x1="0" x2="26.25" y1="264" y2="264" /><line stroke="black" stroke-width="0.5" x1="0" x2="26.25" y1="286" y2="286" /><line stroke="black" stroke-width="0.5" x1="0" x2="26.25" y1="308" y2="308" /><line stroke="black" stroke-width="0.5" x1="0" x2="26.25" y1="330" y2="330" /><line stroke="black" stroke-width="0.5" x1="0" x2="26.25" y1="352" y2="352" /><line stroke="black" stroke-width="0.5" x1="0" x2="26.25" y1="374" y2="374" /><text font-size="8" text-anchor="middle" transform="rotate(90,13.125,11)" x="13.125" y="11">1</text><text font-size="8" text-anchor="middle" transform="rotate(90,13.125,33)" x="13.125" y="33">2</text><text font-size="8" text-anchor="middle" transform="rotate(90,13.125,55)" x="13.125" y="55">3</text><text font-size="8" text-anchor="middle" transform="rotate(90,13.125,77)" x="13.125" y="77">4</text><text font-size="8" font-weight="bold" text-anchor="middle" transform="rotate(90,13.125,99)" x="13.125" y="99">5</text><text font-size="8" text-anchor="middle" transform="rotate(90,13.125,121)" x="13.125" y="121">6</text><text font-size="8" text-anchor="middle" transform="rotate(90,13.125,143)" x="13.125" y="143">7</text><text font-size="8" text-anchor="middle" transform="rotate(90,13.125,165)" x="13.125" y="165">8</text><text font-size="8" text-anchor="middle" transform="rotate(90,13.125,187)" x="13.125" y="187">9</text><text font-size="8" font-weight="bold" text-anchor="middle" transform="rotate(90,13.125,209)" x="13.125" y="209">10</text><text font-size="8" text-anchor="middle" transform="rotate(90,13.125,231)" x="13.125" y="231">11</text><text font-size="8" text-anchor="middle" transform="rotate(90,13.125,253)" x="13.125" y="253">12</text><text font-size="8" text-anchor="middle" transform="rotate(90,13.125,275)" x="13.125" y="275">13</text><text font-size="8" text-anchor="middle" transform="rotate(90,13.125,297)" x="13.125" y="297">14</text><text font-size="8" font-weight="bold" text-anchor="middle" transform="rotate(90,13.125,319)" x="13.125" y="319">15</text><text font-size="8" text-anchor="middle" transform="rotate(90,13.125,341)" x="13.125" y="341">16</text><text font-size="8" text-anchor="middle" transform="rotate(90,13.125,363)" x="13.125" y="363">17</text></g><g id="id4"><use x="0" xlink:href="#id3" y="0" /><rect fill="grey" height="4" width="26.25" x="0" y="396" /><rect fill="grey" height="1" width="26.25" x="0" y="399" /></g><g id="id3"><line stroke="black" stroke-width="0.5" x1="0" x2="26.25" y1="22" y2="22" /><line stroke="black" stroke-width="0.5" x1="0" x2="26.25" y1="44" y2="44" /><line stroke="black" stroke-width="0.5" x1="0" x2="26.25" y1="66" y2="66" /><line stroke="black" stroke-width="0.5" x1="0" x2="26.25" y1="88" y2="88" /><line stroke="black" stroke-width="0.5" x1="0" x2="26.25" y1="110" y2="110" /><line stroke="black" stroke-width="0.5" x1="0" x2="26.25" y1="132" y2="132" /><line stroke="black" stroke-width="0.5" x1="0" x2="26.25" y1="154" y2="154" /><line stroke="black" stroke-width="0.5" x1="0" x2="26.25" y1="176" y2="176" /><line stroke="black" stroke-width="0.5" x1="0" x2="26.25" y1="198" y2="198" /><line stroke="black" stroke-width="0.5" x1="0" x2="26.25" y1="220" y2="220" /><line stroke="black" stroke-width="0.5" x1="0" x2="26.25" y1="242" y2="242" /><line stroke="black" stroke-width="0.5" x1="0" x2="26.25" y1="264" y2="264" /><line stroke="black" stroke-width="0.5" x1="0" x2="26.25" y1="286" y2="286" /><line stroke="black" stroke-width="0.5" x1="0" x2="26.25" y1="308" y2="308" /><line stroke="black" stroke-width="0.5" x1="0" x2="26.25" y1="330" y2="330" /><line stroke="black" stroke-width="0.5" x1="0" x2="26.25" y1="352" y2="352" /><line stroke="black" stroke-width="0.5" x1="0" x2="26.25" y1="374" y2="374" /><text font-size="8" text-anchor="middle" transform="rotate(90,13.125,11)" x="13.125" y="11">19</text><text font-size="8" font-weight="bold" text-anchor="middle" transform="rotate(90,13.125,33)" x="13.125" y="33">20</text><text font-size="8" text-anchor="middle" transform="rotate(90,13.125,55)" x="13.125" y="55">21</text><text font-size="8" text-anchor="middle" transform="rotate(90,13.125,77)" x="13.125" y="77">22</text><text font-size="8" text-anchor="middle" transform="rotate(90,13.125,99)" x="13.125" y="99">23</text><text font-size="8" text-anchor="middle" transform="rotate(90,13.125,121)" x="13.125" y="121">24</text><text font-size="8" font-weight="bold" text-anchor="middle" transform="rotate(90,13.125,143)" x="13.125" y="143">25</text><text font-size="8" text-anchor="middle" transform="rotate(90,13.125,165)" x="13.125" y="165">26</text><text font-size="8" text-anchor="middle" transform="rotate(90,13.125,187)" x="13.125" y="187">27</text><text font-size="8" text-anchor="middle" transform="rotate(90,13.125,209)" x="13.125" y="209">28</text><text font-size="8" text-anchor="middle" transform="rotate(90,13.125,231)" x="13.125" y="231">29</text><text font-size="8" font-weight="bold" text-anchor="middle" transform="rotate(90,13.125,253)" x="13.125" y="253">30</text><text font-size="8" text-anchor="middle" transform="rotate(90,13.125,275)" x="13.125" y="275">31</text><text font-size="8" text-anchor="middle" transform="rotate(90,13.125,297)" x="13.125" y="297">32</text><text font-size="8" text-anchor="middle" transform="rotate(90,13.125,319)" x="13.125" y="319">33</text><text font-size="8" text-anchor="middle" transform="rotate(90,13.125,341)" x="13.125" y="341">34</text><text font-size="8" font-weight="bold" text-anchor="middle" transform="rotate(90,13.125,363)" x="13.125" y="363">35</text></g><g id="id6"><use x="0" xlink:href="#id5" y="0" /><rect fill="grey" height="4" width="26.25" x="0" y="396" /><rect fill="grey" height="1" width="26.25" x="0" y="399" /></g><g id="id5"><line stroke="black" stroke-width="0.5" x1="0" x2="26.25" y1="22" y2="22" /><line stroke="black" stroke-width="0.5" x1="0" x2="26.25" y1="44" y2="44" /><line stroke="black" stroke-width="0.5" x1="0" x2="26.25" y1="66" y2="66" /><line stroke="black" stroke-width="0.5" x1="0" x2="26.25" y1="88" y2="88" /><line stroke="black" stroke-width="0.5" x1="0" x2="26.25" y1="110" y2="110" /><line stroke="black" stroke-width="0.5" x1="0" x2="26.25" y1="132" y2="132" /><line stroke="black" stroke-width="0.5" x1="0" x2="26.25" y1="154" y2="154" /><line stroke="black" stroke-width="0.5" x1="0" x2="26.25" y1="176" y2="176" /><line stroke="black" stroke-width="0.5" x1="0" x2="26.25" y1="198" y2="198" /><line stroke="black" stroke-width="0.5" x1="0" x2="26.25" y1="220" y2="220" /><line stroke="black" stroke-width="0.5" x1="0" x2="26.25" y1="242" y2="242" /><line stroke="black" stroke-width="0.5" x1="0" x2="26.25" y1="264" y2="264" /><line stroke="black" stroke-width="0.5" x1="0" x2="26.25" y1="286" y2="286" /><line stroke="black" stroke-width="0.5" x1="0" x2="26.25" y1="308" y2="308" /><line stroke="black" stroke-width="0.5" x1="0" x2="26.25" y1="330" y2="330" /><line stroke="black" stroke-width="0.5" x1="0" x2="26.25" y1="352" y2="352" /><line stroke="black" stroke-width="0.5" x1="0" x2="26.25" y1="374" y2="374" /><text font-size="8" text-anchor="middle" transform="rotate(90,13.125,11)" x="13.125" y="11">37</text><text font-size="8" text-anchor="middle" transform="rotate(90,13.125,33)" x="13.125" y="33">38</text><text font-size="8" text-anchor="middle" transform="rotate(90,13.125,55)" x="13.125" y="55">39</text><text font-size="8" font-weight="bold" text-anchor="middle" transform="rotate(90,13.125,77)" x="13.125" y="77">40</text><text font-size="8" text-anchor="middle" transform="rotate(90,13.125,99)" x="13.125" y="99">41</text><text font-size="8" text-anchor="middle" transform="rotate(90,13.125,121)" x="13.125" y="121">42</text><text font-size="8" text-anchor="middle" transform="rotate(90,13.125,143)" x="13.125" y="143">43</text><text font-size="8" text-anchor="middle" transform="rotate(90,13.125,165)" x="13.125" y="165">44</text><text font-size="8" font-weight="bold" text-anchor="middle" transform="rotate(90,13.125,187)" x="13.125" y="187">45</text><text font-size="8" text-anchor="middle" transform="rotate(90,13.125,209)" x="13.125" y="209">46</text><text font-size="8" text-anchor="middle" transform="rotate(90,13.125,231)" x="13.125" y="231">47</text><text font-size="8" text-anchor="middle" transform="rotate(90,13.125,253)" x="13.125" y="253">48</text><text font-size="8" text-anchor="middle" transform="rotate(90,13.125,275)" x="13.125" y="275">49</text><text font-size="8" font-weight="bold" text-anchor="middle" transform="rotate(90,13.125,297)" x="13.125" y="297">50</text><text font-size="8" text-anchor="middle" transform="rotate(90,13.125,319)" x="13.125" y="319">51</text><text font-size="8" text-anchor="middle" transform="rotate(90,13.125,341)" x="13.125" y="341">52</text><text font-size="8" text-anchor="middle" transform="rotate(90,13.125,363)" x="13.125" y="363">53</text></g><g id="id8"><use x="0" xlink:href="#id7" y="0" /><rect fill="grey" height="4" width="26.25" x="0" y="396" /><rect fill="grey" height="1" width="26.25" x="0" y="399" /></g><g id="id7"><line stroke="black" stroke-width="0.5" x1="0" x2="26.25" y1="22" y2="22" /><line stroke="black" stroke-width="0.5" x1="0" x2="26.25" y1="44" y2="44" /><line stroke="black" stroke-width="0.5" x1="0" x2="26.25" y1="66" y2="66" /><line stroke="black" stroke-width="0.5" x1="0" x2="26.25" y1="88" y2="88" /><line stroke="black" stroke-width="0.5" x1="0" x2="26.25" y1="110" y2="110" /><line stroke="black" stroke-width="0.5" x1="0" x2="26.25" y1="132" y2="132" /><line stroke="black" stroke-width="0.5" x1="0" x2="26.25" y1="154" y2="154" /><line stroke="black" stroke-width="0.5" x1="0" x2="26.25" y1="176" y2="176" /><line stroke="black" stroke-width="0.5" x1="0" x2="26.25" y1="198" y2="198" /><line stroke="black" stroke-width="0.5" x1="0" x2="26.25" y1="220" y2="220" /><line stroke="black" stroke-width="0.5" x1="0" x2="26.25" y1="242" y2="242" /><line stroke="black" stroke-width="0.5" x1="0" x2="26.25" y1="264" y2="264" /><line stroke="black" stroke-width="0.5" x1="0" x2="26.25" y1="286" y2="286" /><line stroke="black" stroke-width="0.5" x1="0" x2="26.25" y1="308" y2="308" /><line stroke="black" stroke-width="0.5" x1="0" x2="26.25" y1="330" y2="330" /><line stroke="black" stroke-width="0.5" x1="0" x2="26.25" y1="352" y2="352" /><line stroke="black" stroke-width="0.5" x1="0" x2="26.25" y1="374" y2="374" /><text font-size="8" font-weight="bold" text-anchor="middle" transform="rotate(90,13.125,11)" x="13.125" y="11">55</text><text font-size="8" text-anchor="middle" transform="rotate(90,13.125,33)" x="13.125" y="33">56</text><text font-size="8" text-anchor="middle" transform="rotate(90,13.125,55)" x="13.125" y="55">57</text><text font-size="8" text-anchor="middle" transform="rotate(90,13.125,77)" x="13.125" y="77">58</text><text font-size="8" text-anchor="middle" transform="rotate(90,13.125,99)" x="13.125" y="99">59</text><text font-size="8" font-weight="bold" text-anchor="middle" transform="rotate(90,13.125,121)" x="13.125" y="121">60</text><text font-size="8" text-anchor="middle" transform="rotate(90,13.125,143)" x="13.125" y="143">61</text><text font-size="8" text-anchor="middle" transform="rotate(90,13.125,165)" x="13.125" y="165">62</text><text font-size="8" text-anchor="middle" transform="rotate(90,13.125,187)" x="13.125" y="187">63</text><text font-size="8" text-anchor="middle" transform="rotate(90,13.125,209)" x="13.125" y="209">64</text><text font-size="8" font-weight="bold" text-anchor="middle" transform="rotate(90,13.125,231)" x="13.125" y="231">65</text><text font-size="8" text-anchor="middle" transform="rotate(90,13.125,253)" x="13.125" y="253">66</text><text font-size="8" text-anchor="middle" transform="rotate(90,13.125,275)" x="13.125" y="275">67</text><text font-size="8" text-anchor="middle" transform="rotate(90,13.125,297)" x="13.125" y="297">68</text><text font-size="8" text-anchor="middle" transform="rotate(90,13.125,319)" x="13.125" y="319">69</text><text font-size="8" font-weight="bold" text-anchor="middle" transform="rotate(90,13.125,341)" x="13.125" y="341">70</text><text font-size="8" text-anchor="middle" transform="rotate(90,13.125,363)" x="13.125" y="363">71</text></g><g id="id10"><use x="0" xlink:href="#id9" y="0" /><rect fill="grey" height="4" width="26.25" x="0" y="396" /><rect fill="grey" height="1" width="26.25" x="0" y="399" /></g><g id="id9"><line stroke="black" stroke-width="0.5" x1="0" x2="26.25" y1="22" y2="22" /><line stroke="black" stroke-width="0.5" x1="0" x2="26.25" y1="44" y2="44" /><line stroke="black" stroke-width="0.5" x1="0" x2="26.25" y1="66" y2="66" /><line stroke="black" stroke-width="0.5" x1="0" x2="26.25" y1="88" y2="88" /><line stroke="black" stroke-width="0.5" x1="0" x2="26.25" y1="110" y2="110" /><line stroke="black" stroke-width="0.5" x1="0" x2="26.25" y1="132" y2="132" /><line stroke="black" stroke-width="0.5" x1="0" x2="26.25" y1="154" y2="154" /><line stroke="black" stroke-width="0.5" x1="0" x2="26.25" y1="176" y2="176" /><line stroke="black" stroke-width="0.5" x1="0" x2="26.25" y1="198" y2="198" /><line stroke="black" stroke-width="0.5" x1="0" x2="26.25" y1="220" y2="220" /><line stroke="black" stroke-width="0.5" x1="0" x2="26.25" y1="242" y2="242" /><line stroke="black" stroke-width="0.5" x1="0" x2="26.25" y1="264" y2="264" /><line stroke="black" stroke-width="0.5" x1="0" x2="26.25" y1="286" y2="286" /><line stroke="black" stroke-width="0.5" x1="0" x2="26.25" y1="308" y2="308" /><line stroke="black" stroke-width="0.5" x1="0" x2="26.25" y1="330" y2="330" /><line stroke="black" stroke-width="0.5" x1="0" x2="26.25" y1="352" y2="352" /><line stroke="black" stroke-width="0.5" x1="0" x2="26.25" y1="374" y2="374" /><text font-size="8" text-anchor="middle" transform="rotate(90,13.125,11)" x="13.125" y="11">73</text><text font-size="8" text-anchor="middle" transform="rotate(90,13.125,33)" x="13.125" y="33">74</text><text font-size="8" font-weight="bold" text-anchor="middle" transform="rotate(90,13.125,55)" x="13.125" y="55">75</text><text font-size="8" text-anchor="middle" transform="rotate(90,13.125,77)" x="13.125" y="77">76</text><text font-size="8" text-anchor="middle" transform="rotate(90,13.125,99)" x="13.125" y="99">77</text><text font-size="8" text-anchor="middle" transform="rotate(90,13.125,121)" x="13.125" y="121">78</text><text font-size="8" text-anchor="middle" transform="rotate(90,13.125,143)" x="13.125" y="143">79</text><text font-size="8" font-weight="bold" text-anchor="middle" transform="rotate(90,13.125,165)" x="13.125" y="165">80</text><text font-size="8" text-anchor="middle" transform="rotate(90,13.125,187)" x="13.125" y="187">81</text><text font-size="8" text-anchor="middle" transform="rotate(90,13.125,209)" x="13.125" y="209">82</text><text font-size="8" text-anchor="middle" transform="rotate(90,13.125,231)" x="13.125" y="231">83</text><text font-size="8" text-anchor="middle" transform="rotate(90,13.125,253)" x="13.125" y="253">84</text><text font-size="8" font-weight="bold" text-anchor="middle" transform="rotate(90,13.125,275)" x="13.125" y="275">85</text><text font-size="8" text-anchor="middle" transform="rotate(90,13.125,297)" x="13.125" y="297">86</text><text font-size="8" text-anchor="middle" transform="rotate(90,13.125,319)" x="13.125" y="319">87</text><text font-size="8" text-anchor="middle" transform="rotate(90,13.125,341)" x="13.125" y="341">88</text><text font-size="8" text-anchor="middle" transform="rotate(90,13.125,363)" x="13.125" y="363">89</text></g><g id="id12"><use x="0" xlink:href="#id11" y="0" /><rect fill="grey" height="4" width="26.25" x="0" y="220" /><rect fill="grey" height="177" width="26.25" x="0" y="223" /></g><g id="id11"><line stroke="black" stroke-width="0.5" x1="0" x2="26.25" y1="22" y2="22" /><line stroke="black" stroke-width="0.5" x1="0" x2="26.25" y1="44" y2="44" /><line stroke="black" stroke-width="0.5" x1="0" x2="26.25" y1="66" y2="66" /><line stroke="black" stroke-width="0.5" x1="0" x2="26.25" y1="88" y2="88" /><line stroke="black" stroke-width="0.5" x1="0" x2="26.25" y1="110" y2="110" /><line stroke="black" stroke-width="0.5" x1="0" x2="26.25" y1="132" y2="132" /><line stroke="black" stroke-width="0.5" x1="0" x2="26.25" y1="154" y2="154" /><line stroke="black" stroke-width="0.5" x1="0" x2="26.25" y1="176" y2="176" /><line stroke="black" stroke-width="0.5" x1="0" x2="26.25" y1="198" y2="198" /><text font-size="8" text-anchor="middle" transform="rotate(90,13.125,11)" x="13.125" y="11">91</text><text font-size="8" text-anchor="middle" transform="rotate(90,13.125,33)" x="13.125" y="33">92</text><text font-size="8" text-anchor="middle" transform="rotate(90,13.125,55)" x="13.125" y="55">93</text><text font-size="8" text-anchor="middle" transform="rotate(90,13.125,77)" x="13.125" y="77">94</text><text font-size="8" font-weight="bold" text-anchor="middle" transform="rotate(90,13.125,99)" x="13.125" y="99">95</text><text font-size="8" text-anchor="middle" transform="rotate(90,13.125,121)" x="13.125" y="121">96</text><text font-size="8" text-anchor="middle" transform="rotate(90,13.125,143)" x="13.125" y="143">97</text><text font-size="8" text-anchor="middle" transform="rotate(90,13.125,165)" x="13.125" y="165">98</text><text font-size="8" text-anchor="middle" transform="rotate(90,13.125,187)" x="13.125" y="187">99</text></g></defs><use x="0" xlink:href="#id2" y="0" /><use x="30.5" xlink:href="#id4" y="0" /><use x="61.0" xlink:href="#id6" y="0" /><use x="91.5" xlink:href="#id8" y="0" /><use x="122.0" xlink:href="#id10" y="0" /><use x="152.5" xlink:href="#id12" y="0" /></svg>