<?xml version="1.0" encoding="utf-8" ?>
<svg baseProfile="tiny" height="400" version="1.2" width="148" xmlns="http://www.w3.org/2000/svg" xmlns:ev="http://www.w3.org/2001/xml-events" xmlns:xlink="http://www.w3.org/1999/xlink"><defs><g id="id26"><use x="0" xlink:href="#id25" y="0" /><rect fill="grey" height="4" width="26" x="0" y="400" /></g><g id="id25"><rect fill="white" height="400" width="26" x="0" y="0" /><line stroke="black" stroke-width="0.5" x1="0" x2="6" y1="4" y2="4" /><line stroke="black" stroke-width="0.5" x1="20" x2="26" y1="4" y2="4" /><line stroke="black" stroke-width="0.5" x1="0" x2="6" y1="8" y2="8" /><line stroke="black" stroke-width="0.5" x1="20" x2="26" y1="8" y2="8" /><line stroke="black" stroke-width="0.5" x1="0" x2="6" y1="12" y2="12" /><line stroke="black" stroke-width="0.5" x1="20" x2="26" y1="12" y2="12" /><line stroke="black" stroke-width="0.5" x1="0" x2="6" y1="16" y2="16" /><line stroke="black" stroke-width="0.5" x1="20" x2="26" y1="16" y2="16" /><line stroke="black" stroke-width="0.5" x1="0" x2="6" y1="20" y2="20" /><line stroke="black" stroke-width="0.5" x1="20" x2="26" y1="20" y2="20" /><line stroke="black" stroke-width="0.5" x1="0" x2="6" y1="24" y2="24" /><line stroke="black" stroke-width="0.5" x1="20" x2="26" y1="24" y2="24" /><line stroke="black" stroke-width="0.5" x1="0" x2="6" y1="28" y2="28" /><line stroke="black" stroke-width="0.5" x1="20" x2="26" y1="28" y2="28" /><line stroke="black" stroke-width="0.5" x1="0" x2="6" y1="32" y2="32" /><line stroke="black" stroke-width="0.5" x1="20" x2="26" y1="32" y2="32" /><line stroke="black" stroke-width="0.5" x1="0" x2="6" y1="36" y2="36" /><line stroke="black" stroke-width="0.5" x1="20" x2="26" y1="36" y2="36" /><line stroke="black" stroke-width="0.5" x1="0" x2="6" y1="40" y2="40" /><line stroke="black" stroke-width="0.5" x1="20" x2="26" y1="40" y2="40" /><line stroke="black" stroke-width="0.5" x1="0" x2="6" y1="44" y2="44" /><line stroke="black" stroke-width="0.5" x1="20" x2="26" y1="44" y2="44" /><line stroke="black" stroke-width="0.5" x1="0" x2="6" y1="48" y2="48" /><line stroke="black" stroke-width="0.5" x1="20" x2="26" y1="48" y2="48" /><line stroke="black" stroke-width="0.5" x1="0" x2="6" y1="52" y2="52" /><line stroke="black" stroke-width="0.5" x1="20" x2="26" y1="52" y2="52" /><line stroke="black" stroke-width="0.5" x1="0" x2="6" y1="56" y2="56" /><line stroke="black" stroke-width="0.5" x1="20" x2="26" y1="56" y2="56" /><line stroke="black" stroke-width="0.5" x1="0" x2="6" y1="60" y2="60" /><line stroke="black" stroke-width="0.5" x1="20" x2="26" y1="60" y2="60" /><line stroke="black" stroke-width="0.5" x1="0" x2="6" y1="64" y2="64" /><line stroke="black" stroke-width="0.5" x1="20" x2="26" y1="64" y2="64" /><line stroke="black" stroke-width="0.5" x1="0" x2="6" y1="68" y2="68" /><line stroke="black" stroke-width="0.5" x1="20" x2="26" y1="68" y2="68" /><line stroke="black" stroke-width="0.5" x1="0" x2="6" y1="72" y2="72" /><line stroke="black" stroke-width="0.5" x1="20" x2="26" y1="72" y2="72" /><line stroke="black" stroke-width="0.5" x1="0" x2="6" y1="76" y2="76" /><line stroke="black" stroke-width="0.5" x1="20" x2="26" y1="76" y2="76" /><line stroke="black" stroke-width="0.5" x1="0" x2="6" y1="80" y2="80" /><line stroke="black" stroke-width="0.5" x1="20" x2="26" y1="80" y2="80" /><line stroke="black" stroke-width="0.5" x1="0" x2="6" y1="84" y2="84" /><line stroke="black" stroke-width="0.5" x1="20" x2="26" y1="84" y2="84" /><line stroke="black" stroke-width="0.5" x1="0" x2="6" y1="88" y2="88" /><line stroke="black" stroke-width="0.5" x1="20" x2="26" y1="88" y2="88" /><line stroke="black" stroke-width="0.5" x1="0" x2="6" y1="92" y2="92" /><line stroke="black" stroke-width="0.5" x1="20" x2="26" y1="92" y2="92" /><line stroke="black" stroke-width="0.5" x1="0" x2="6" y1="96" y2="96" /><line stroke="black" stroke-width="0.5" x1="20" x2="26" y1="96" y2="96" /><line stroke="black" stroke-width="0.5" x1="0" x2="6" y1="100" y2="100" /><line stroke="black" stroke-width="0.5" x1="20" x2="26" y1="100" y2="100" /><line stroke="black" stroke-width="0.5" x1="0" x2="6" y1="104" y2="104" /><line stroke="black" stroke-width="0.5" x1="20" x2="26" y1="104" y2="104" /><line stroke="black" stroke-width="0.5" x1="0" x2="6" y1="108" y2="108" /><line stroke="black" stroke-width="0.5" x1="20" x2="26" y1="108" y2="108" /><line stroke="black" stroke-width="0.5" x1="0" x2="6" y1="112" y2="112" /><line stroke="black" stroke-width="0.5" x1="20" x2="26" y1="112" y2="112" /><line stroke="black" stroke-width="0.5" x1="0" x2="6" y1="116" y2="116" /><line stroke="black" stroke-width="0.5" x1="20" x2="26" y1="116" y2="116" /><line stroke="black" stroke-width="0.5" x1="0" x2="6" y1="120" y2="120" /><line stroke="black" stroke-width="0.5" x1="20" x2="26" y1="120" y2="120" /><line stroke="black" stroke-width="0.5" x1="0" x2="6" y1="124" y2="124" /><line stroke="black" stroke-width="0.5" x1="20" x2="26" y1="124" y2="124" /><line stroke="black" stroke-width="0.5" x1="0" x2="6" y1="128" y2="128" /><line stroke="black" stroke-width="0.5" x1="20" x2="26" y1="128" y2="128" /><line stroke="black" stroke-width="0.5" x1="0" x2="6" y1="132" y2="132" /><line stroke="black" stroke-width="0.5" x1="20" x2="26" y1="132" y2="132" /><line stroke="black" stroke-width="0.5" x1="0" x2="6" y1="136" y2="136" /><line stroke="black" stroke-width="0.5" x1="20" x2="26" y1="136" y2="136" /><line stroke="black" stroke-width="0.5" x1="0" x2="6" y1="140" y2="140" /><line stroke="black" stroke-width="0.5" x1="20" x2="26" y1="140" y2="140" /><line stroke="black" stroke-width="0.5" x1="0" x2="6" y1="144" y2="144" /><line stroke="black" stroke-width="0.5" x1="20" x2="26" y1="144" y2="144" /><line stroke="black" stroke-width="0.5" x1="0" x2="6" y1="148" y2="148" /><line stroke="black" stroke-width="0.5" x1="20" x2="26" y1="148" y2="148" /><line stroke="black" stroke-width="0.5" x1="0" x2="6" y1="152" y2="152" /><line stroke="black" stroke-width="0.5" x1="20" x2="26" y1="152" y2="152" /><line stroke="black" stroke-width="0.5" x1="0" x2="6" y1="156" y2="156" /><line stroke="black" stroke-width="0.5" x1="20" x2="26" y1="156" y2="156" /><line stroke="black" stroke-width="0.5" x1="0" x2="6" y1="160" y2="160" /><line stroke="black" stroke-width="0.5" x1="20" x2="26" y1="160" y2="160" /><line stroke="black" stroke-width="0.5" x1="0" x2="6" y1="164" y2="164" /><line stroke="black" stroke-width="0.5" x1="20" x2="26" y1="164" y2="164" /><line stroke="black" stroke-width="0.5" x1="0" x2="6" y1="168" y2="168" /><line stroke="black" stroke-width="0.5" x1="20" x2="26" y1="168" y2="168" /><line stroke="black" stroke-width="0.5" x1="0" x2="6" y1="172" y2="172" /><line stroke="black" stroke-width="0.5" x1="20" x2="26" y1="172" y2="172" /><line stroke="black" stroke-width="0.5" x1="0" x2="6" y1="176" y2="176" /><line stroke="black" stroke-width="0.5" x1="20" x2="26" y1="176" y2="176" /><line stroke="black" stroke-width="0.5" x1="0" x2="6" y1="180" y2="180" /><line stroke="black" stroke-width="0.5" x1="20" x2="26" y1="180" y2="180" /><line stroke="black" stroke-width="0.5" x1="0" x2="6" y1="184" y2="184" /><line stroke="black" stroke-width="0.5" x1="20" x2="26" y1="184" y2="184" /><line stroke="black" stroke-width="0.5" x1="0" x2="6" y1="188" y2="188" /><line stroke="black" stroke-width="0.5" x1="20" x2="26" y1="188" y2="188" /><line stroke="black" stroke-width="0.5" x1="0" x2="6" y1="192" y2="192" /><line stroke="black" stroke-width="0.5" x1="20" x2="26" y1="192" y2="192" /><line stroke="black" stroke-width="0.5" x1="0" x2="6" y1="196" y2="196" /><line stroke="black" stroke-width="0.5" x1="20" x2="26" y1="196" y2="196" /><line stroke="black" stroke-width="0.5" x1="0" x2="26" y1="200" y2="200" /><line stroke="black" stroke-width="0.5" x1="0" x2="6" y1="204" y2="204" /><line stroke="black" stroke-width="0.5" x1="20" x2="26" y1="204" y2="204" /><line stroke="black" stroke-width="0.5" x1="0" x2="6" y1="208" y2="208" /><line stroke="black" stroke-width="0.5" x1="20" x2="26" y1="208" y2="208" /><line stroke="black" stroke-width="0.5" x1="0" x2="6" y1="212" y2="212" /><line stroke="black" stroke-width="0.5" x1="20" x2="26" y1="212" y2="212" /><line stroke="black" stroke-width="0.5" x1="0" x2="6" y1="216" y2="216" /><line stroke="black" stroke-width="0.5" x1="20" x2="26" y1="216" y2="216" /><line stroke="black" stroke-width="0.5" x1="0" x2="6" y1="220" y2="220" /><line stroke="black" stroke-width="0.5" x1="20" x2="26" y1="220" y2="220" /><line stroke="black" stroke-width="0.5" x1="0" x2="6" y1="224" y2="224" /><line stroke="black" stroke-width="0.5" x1="20" x2="26" y1="224" y2="224" /><line stroke="black" stroke-width="0.5" x1="0" x2="6" y1="228" y2="228" /><line stroke="black" stroke-width="0.5" x1="20" x2="26" y1="228" y2="228" /><line stroke="black" stroke-width="0.5" x1="0" x2="6" y1="232" y2="232" /><line stroke="black" stroke-width="0.5" x1="20" x2="26" y1="232" y2="232" /><line stroke="black" stroke-width="0.5" x1="0" x2="6" y1="236" y2="236" /><line stroke="black" stroke-width="0.5" x1="20" x2="26" y1="236" y2="236" /><line stroke="black" stroke-width="0.5" x1="0" x2="6" y1="240" y2="240" /><line stroke="black" stroke-width="0.5" x1="20" x2="26" y1="240" y2="240" /><line stroke="black" stroke-width="0.5" x1="0" x2="6" y1="244" y2="244" /><line stroke="black" stroke-width="0.5" x1="20" x2="26" y1="244" y2="244" /><line stroke="black" stroke-width="0.5" x1="0" x2="6" y1="248" y2="248" /><line stroke="black" stroke-width="0.5" x1="20" x2="26" y1="248" y2="248" /><line stroke="black" stroke-width="0.5" x1="0" x2="6" y1="252" y2="252" /><line stroke="black" stroke-width="0.5" x1="20" x2="26" y1="252" y2="252" /><line stroke="black" stroke-width="0.5" x1="0" x2="6" y1="256" y2="256" /><line stroke="black" stroke-width="0.5" x1="20" x2="26" y1="256" y2="256" /><line stroke="black" stroke-width="0.5" x1="0" x2="6" y1="260" y2="260" /><line stroke="black" stroke-width="0.5" x1="20" x2="26" y1="260" y2="260" /><line stroke="black" stroke-width="0.5" x1="0" x2="6" y1="264" y2="264" /><line stroke="black" stroke-width="0.5" x1="20" x2="26" y1="264" y2="264" /><line stroke="black" stroke-width="0.5" x1="0" x2="6" y1="268" y2="268" /><line stroke="black" stroke-width="0.5" x1="20" x2="26" y1="268" y2="268" /><line stroke="black" stroke-width="0.5" x1="0" x2="6" y1="272" y2="272" /><line stroke="black" stroke-width="0.5" x1="20" x2="26" y1="272" y2="272" /><line stroke="black" stroke-width="0.5" x1="0" x2="6" y1="276" y2="276" /><line stroke="black" stroke-width="0.5" x1="20" x2="26" y1="276" y2="276" /><line stroke="black" stroke-width="0.5" x1="0" x2="6" y1="280" y2="280" /><line stroke="black" stroke-width="0.5" x1="20" x2="26" y1="280" y2="280" /><line stroke="black" stroke-width="0.5" x1="0" x2="6" y1="284" y2="284" /><line stroke="black" stroke-width="0.5" x1="20" x2="26" y1="284" y2="284" /><line stroke="black" stroke-width="0.5" x1="0" x2="6" y1="288" y2="288" /><line stroke="black" stroke-width="0.5" x1="20" x2="26" y1="288" y2="288" /><line stroke="black" stroke-width="0.5" x1="0" x2="6" y1="292" y2="292" /><line stroke="black" stroke-width="0.5" x1="20" x2="26" y1="292" y2="292" /><line stroke="black" stroke-width="0.5" x1="0" x2="6" y1="296" y2="296" /><line stroke="black" stroke-width="0.5" x1="20" x2="26" y1="296" y2="296" /><line stroke="black" stroke-width="0.5" x1="0" x2="6" y1="300" y2="300" /><line stroke="black" stroke-width="0.5" x1="20" x2="26" y1="300" y2="300" /><line stroke="black" stroke-width="0.5" x1="0" x2="6" y1="304" y2="304" /><line stroke="black" stroke-width="0.5" x1="20" x2="26" y1="304" y2="304" /><line stroke="black" stroke-width="0.5" x1="0" x2="6" y1="308" y2="308" /><line stroke="black" stroke-width="0.5" x1="20" x2="26" y1="308" y2="308" /><line stroke="black" stroke-width="0.5" x1="0" x2="6" y1="312" y2="312" /><line stroke="black" stroke-width="0.5" x1="20" x2="26" y1="312" y2="312" /><line stroke="black" stroke-width="0.5" x1="0" x2="6" y1="316" y2="316" /><line stroke="black" stroke-width="0.5" x1="20" x2="26" y1="316" y2="316" /><line stroke="black" stroke-width="0.5" x1="0" x2="6" y1="320" y2="320" /><line stroke="black" stroke-width="0.5" x1="20" x2="26" y1="320" y2="320" /><line stroke="black" stroke-width="0.5" x1="0" x2="6" y1="324" y2="324" /><line stroke="black" stroke-width="0.5" x1="20" x2="26" y1="324" y2="324" /><line stroke="black" stroke-width="0.5" x1="0" x2="6" y1="328" y2="328" /><line stroke="black" stroke-width="0.5" x1="20" x2="26" y1="328" y2="328" /><line stroke="black" stroke-width="0.5" x1="0" x2="6" y1="332" y2="332" /><line stroke="black" stroke-width="0.5" x1="20" x2="26" y1="332" y2="332" /><line stroke="black" stroke-width="0.5" x1="0" x2="6" y1="336" y2="336" /><line stroke="black" stroke-width="0.5" x1="20" x2="26" y1="336" y2="336" /><line stroke="black" stroke-width="0.5" x1="0" x2="6" y1="340" y2="340" /><line stroke="black" stroke-width="0.5" x1="20" x2="26" y1="340" y2="340" /><line stroke="black" stroke-width="0.5" x1="0" x2="6" y1="344" y2="344" /><line stroke="black" stroke-width="0.5" x1="20" x2="26" y1="344" y2="344" /><line stroke="black" stroke-width="0.5" x1="0" x2="6" y1="348" y2="348" /><line stroke="black" stroke-width="0.5" x1="20" x2="26" y1="348" y2="348" /><line stroke="black" stroke-width="0.5" x1="0" x2="6" y1="352" y2="352" /><line stroke="black" stroke-width="0.5" x1="20" x2="26" y1="352" y2="352" /><line stroke="black" stroke-width="0.5" x1="0" x2="6" y1="356" y2="356" /><line stroke="black" stroke-width="0.5" x1="20" x2="26" y1="356" y2="356" /><line stroke="black" stroke-width="0.5" x1="0" x2="6" y1="360" y2="360" /><line stroke="black" stroke-width="0.5" x1="20" x2="26" y1="360" y2="360" /><line stroke="black" stroke-width="0.5" x1="0" x2="6" y1="364" y2="364" /><line stroke="black" stroke-width="0.5" x1="20" x2="26" y1="364" y2="364" /><line stroke="black" stroke-width="0.5" x1="0" x2="6" y1="368" y2="368" /><line stroke="black" stroke-width="0.5" x1="20" x2="26" y1="368" y2="368" /><line stroke="black" stroke-width="0.5" x1="0" x2="6" y1="372" y2="372" /><line stroke="black" stroke-width="0.5" x1="20" x2="26" y1="372" y2="372" /><line stroke="black" stroke-width="0.5" x1="0" x2="6" y1="376" y2="376" /><line stroke="black" stroke-width="0.5" x1="20" x2="26" y1="376" y2="376" /><line stroke="black" stroke-width="0.5" x1="0" x2="6" y1="380" y2="380" /><line stroke="black" stroke-width="0.5" x1="20" x2="26" y1="380" y2="380" /><line stroke="black" stroke-width="0.5" x1="0" x2="6" y1="384" y2="384" /><line stroke="black" stroke-width="0.5" x1="20" x2="26" y1="384" y2="384" /><line stroke="black" stroke-width="0.5" x1="0" x2="6" y1="388" y2="388" /><line stroke="black" stroke-width="0.5" x1="20" x2="26" y1="388" y2="388" /><line stroke="black" stroke-width="0.5" x1="0" x2="6" y1="392" y2="392" /><line stroke="black" stroke-width="0.5" x1="20" x2="26" y1="392" y2="392" /><line stroke="black" stroke-width="0.5" x1="0" x2="6" y1="396" y2="396" /><line stroke="black" stroke-width="0.5" x1="20" x2="26" y1="396" y2="396" /><g font-size="10"><text x="13" y="100">50</text></g><g font-size="10"><text x="13" y="300">50</text></g></g><g id="id29"><use x="0" xlink:href="#id27" y="0" /><rect fill="grey" height="4" width="26" x="0" y="360" /><use x="0" xlink:href="#id28" y="363" /><rect fill="grey" height="4" width="26" x="0" y="399" /></g><g id="id27"><rect fill="white" height="360" width="26" x="0" y="0" /><line stroke="black" stroke-width="0.5" x1="0" x2="6" y1="4" y2="4" /><line stroke="black" stroke-width="0.5" x1="20" x2="26" y1="4" y2="4" /><line stroke="black" stroke-width="0.5" x1="0" x2="6" y1="8" y2="8" /><line stroke="black" stroke-width="0.5" x1="20" x2="26" y1="8" y2="8" /><line stroke="black" stroke-width="0.5" x1="0" x2="6" y1="12" y2="12" /><line stroke="black" stroke-width="0.5" x1="20" x2="26" y1="12" y2="12" /><line stroke="black" stroke-width="0.5" x1="0" x2="6" y1="16" y2="16" /><line stroke="black" stroke-width="0.5" x1="20" x2="26" y1="16" y2="16" /><line stroke="black" stroke-width="0.5" x1="0" x2="6" y1="20" y2="20" /><line stroke="black" stroke-width="0.5" x1="20" x2="26" y1="20" y2="20" /><line stroke="black" stroke-width="0.5" x1="0" x2="6" y1="24" y2="24" /><line stroke="black" stroke-width="0.5" x1="20" x2="26" y1="24" y2="24" /><line stroke="black" stroke-width="0.5" x1="0" x2="6" y1="28" y2="28" /><line stroke="black" stroke-width="0.5" x1="20" x2="26" y1="28" y2="28" /><line stroke="black" stroke-width="0.5" x1="0" x2="6" y1="32" y2="32" /><line stroke="black" stroke-width="0.5" x1="20" x2="26" y1="32" y2="32" /><line stroke="black" stroke-width="0.5" x1="0" x2="6" y1="36" y2="36" /><line stroke="black" stroke-width="0.5" x1="20" x2="26" y1="36" y2="36" /><line stroke="black" stroke-width="0.5" x1="0" x2="6" y1="40" y2="40" /><line stroke="black" stroke-width="0.5" x1="20" x2="26" y1="40" y2="40" /><line stroke="black" stroke-width="0.5" x1="0" x2="6" y1="44" y2="44" /><line stroke="black" stroke-width="0.5" x1="20" x2="26" y1="44" y2="44" /><line stroke="black" stroke-width="0.5" x1="0" x2="6" y1="48" y2="48" /><line stroke="black" stroke-width="0.5" x1="20" x2="26" y1="48" y2="48" /><line stroke="black" stroke-width="0.5" x1="0" x2="6" y1="52" y2="52" /><line stroke="black" stroke-width="0.5" x1="20" x2="26" y1="52" y2="52" /><line stroke="black" stroke-width="0.5" x1="0" x2="6" y1="56" y2="56" /><line stroke="black" stroke-width="0.5" x1="20" x2="26" y1="56" y2="56" /><line stroke="black" stroke-width="0.5" x1="0" x2="6" y1="60" y2="60" /><line stroke="black" stroke-width="0.5" x1="20" x2="26" y1="60" y2="60" /><line stroke="black" stroke-width="0.5" x1="0" x2="6" y1="64" y2="64" /><line stroke="black" stroke-width="0.5" x1="20" x2="26" y1="64" y2="64" /><line stroke="black" stroke-width="0.5" x1="0" x2="6" y1="68" y2="68" /><line stroke="black" stroke-width="0.5" x1="20" x2="26" y1="68" y2="68" /><line stroke="black" stroke-width="0.5" x1="0" x2="6" y1="72" y2="72" /><line stroke="black" stroke-width="0.5" x1="20" x2="26" y1="72" y2="72" /><line stroke="black" stroke-width="0.5" x1="0" x2="6" y1="76" y2="76" /><line stroke="black" stroke-width="0.5" x1="20" x2="26" y1="76" y2="76" /><line stroke="black" stroke-width="0.5" x1="0" x2="6" y1="80" y2="80" /><line stroke="black" stroke-width="0.5" x1="20" x2="26" y1="80" y2="80" /><line stroke="black" stroke-width="0.5" x1="0" x2="6" y1="84" y2="84" /><line stroke="black" stroke-width="0.5" x1="20" x2="26" y1="84" y2="84" /><line stroke="black" stroke-width="0.5" x1="0" x2="6" y1="88" y2="88" /><line stroke="black" stroke-width="0.5" x1="20" x2="26" y1="88" y2="88" /><line stroke="black" stroke-width="0.5" x1="0" x2="6" y1="92" y2="92" /><line stroke="black" stroke-width="0.5" x1="20" x2="26" y1="92" y2="92" /><line stroke="black" stroke-width="0.5" x1="0" x2="6" y1="96" y2="96" /><line stroke="black" stroke-width="0.5" x1="20" x2="26" y1="96" y2="96" /><line stroke="black" stroke-width="0.5" x1="0" x2="6" y1="100" y2="100" /><line stroke="black" stroke-width="0.5" x1="20" x2="26" y1="100" y2="100" /><line stroke="black" stroke-width="0.5" x1="0" x2="6" y1="104" y2="104" /><line stroke="black" stroke-width="0.5" x1="20" x2="26" y1="104" y2="104" /><line stroke="black" stroke-width="0.5" x1="0" x2="6" y1="108" y2="108" /><line stroke="black" stroke-width="0.5" x1="20" x2="26" y1="108" y2="108" /><line stroke="black" stroke-width="0.5" x1="0" x2="6" y1="112" y2="112" /><line stroke="black" stroke-width="0.5" x1="20" x2="26" y1="112" y2="112" /><line stroke="black" stroke-width="0.5" x1="0" x2="6" y1="116" y2="116" /><line stroke="black" stroke-width="0.5" x1="20" x2="26" y1="116" y2="116" /><line stroke="black" stroke-width="0.5" x1="0" x2="6" y1="120" y2="120" /><line stroke="black" stroke-width="0.5" x1="20" x2="26" y1="120" y2="120" /><line stroke="black" stroke-width="0.5" x1="0" x2="6" y1="124" y2="124" /><line stroke="black" stroke-width="0.5" x1="20" x2="26" y1="124" y2="124" /><line stroke="black" stroke-width="0.5" x1="0" x2="6" y1="128" y2="128" /><line stroke="black" stroke-width="0.5" x1="20" x2="26" y1="128" y2="128" /><line stroke="black" stroke-width="0.5" x1="0" x2="6" y1="132" y2="132" /><line stroke="black" stroke-width="0.5" x1="20" x2="26" y1="132" y2="132" /><line stroke="black" stroke-width="0.5" x1="0" x2="6" y1="136" y2="136" /><line stroke="black" stroke-width="0.5" x1="20" x2="26" y1="136" y2="136" /><line stroke="black" stroke-width="0.5" x1="0" x2="6" y1="140" y2="140" /><line stroke="black" stroke-width="0.5" x1="20" x2="26" y1="140" y2="140" /><line stroke="black" stroke-width="0.5" x1="0" x2="6" y1="144" y2="144" /><line stroke="black" stroke-width="0.5" x1="20" x2="26" y1="144" y2="144" /><line stroke="black" stroke-width="0.5" x1="0" x2="6" y1="148" y2="148" /><line stroke="black" stroke-width="0.5" x1="20" x2="26" y1="148" y2="148" /><line stroke="black" stroke-width="0.5" x1="0" x2="6" y1="152" y2="152" /><line stroke="black" stroke-width="0.5" x1="20" x2="26" y1="152" y2="152" /><line stroke="black" stroke-width="0.5" x1="0" x2="6" y1="156" y2="156" /><line stroke="black" stroke-width="0.5" x1="20" x2="26" y1="156" y2="156" /><line stroke="black" stroke-width="0.5" x1="0" x2="6" y1="160" y2="160" /><line stroke="black" stroke-width="0.5" x1="20" x2="26" y1="160" y2="160" /><line stroke="black" stroke-width="0.5" x1="0" x2="6" y1="164" y2="164" /><line stroke="black" stroke-width="0.5" x1="20" x2="26" y1="164" y2="164" /><line stroke="black" stroke-width="0.5" x1="0" x2="6" y1="168" y2="168" /><line stroke="black" stroke-width="0.5" x1="20" x2="26" y1="168" y2="168" /><line stroke="black" stroke-width="0.5" x1="0" x2="6" y1="172" y2="172" /><line stroke="black" stroke-width="0.5" x1="20" x2="26" y1="172" y2="172" /><line stroke="black" stroke-width="0.5" x1="0" x2="6" y1="176" y2="176" /><line stroke="black" stroke-width="0.5" x1="20" x2="26" y1="176" y2="176" /><line stroke="black" stroke-width="0.5" x1="0" x2="26" y1="180" y2="180" /><line stroke="black" stroke-width="0.5" x1="0" x2="6" y1="184" y2="184" /><line stroke="black" stroke-width="0.5" x1="20" x2="26" y1="184" y2="184" /><line stroke="black" stroke-width="0.5" x1="0" x2="6" y1="188" y2="188" /><line stroke="black" stroke-width="0.5" x1="20" x2="26" y1="188" y2="188" /><line stroke="black" stroke-width="0.5" x1="0" x2="6" y1="192" y2="192" /><line stroke="black" stroke-width="0.5" x1="20" x2="26" y1="192" y2="192" /><line stroke="black" stroke-width="0.5" x1="0" x2="6" y1="196" y2="196" /><line stroke="black" stroke-width="0.5" x1="20" x2="26" y1="196" y2="196" /><line stroke="black" stroke-width="0.5" x1="0" x2="6" y1="200" y2="200" /><line stroke="black" stroke-width="0.5" x1="20" x2="26" y1="200" y2="200" /><line stroke="black" stroke-width="0.5" x1="0" x2="6" y1="204" y2="204" /><line stroke="black" stroke-width="0.5" x1="20" x2="26" y1="204" y2="204" /><line stroke="black" stroke-width="0.5" x1="0" x2="6" y1="208" y2="208" /><line stroke="black" stroke-width="0.5" x1="20" x2="26" y1="208" y2="208" /><line stroke="black" stroke-width="0.5" x1="0" x2="6" y1="212" y2="212" /><line stroke="black" stroke-width="0.5" x1="20" x2="26" y1="212" y2="212" /><line stroke="black" stroke-width="0.5" x1="0" x2="6" y1="216" y2="216" /><line stroke="black" stroke-width="0.5" x1="20" x2="26" y1="216" y2="216" /><line stroke="black" stroke-width="0.5" x1="0" x2="6" y1="220" y2="220" /><line stroke="black" stroke-width="0.5" x1="20" x2="26" y1="220" y2="220" /><line stroke="black" stroke-width="0.5" x1="0" x2="6" y1="224" y2="224" /><line stroke="black" stroke-width="0.5" x1="20" x2="26" y1="224" y2="224" /><line stroke="black" stroke-width="0.5" x1="0" x2="6" y1="228" y2="228" /><line stroke="black" stroke-width="0.5" x1="20" x2="26" y1="228" y2="228" /><line stroke="black" stroke-width="0.5" x1="0" x2="6" y1="232" y2="232" /><line stroke="black" stroke-width="0.5" x1="20" x2="26" y1="232" y2="232" /><line stroke="black" stroke-width="0.5" x1="0" x2="6" y1="236" y2="236" /><line stroke="black" stroke-width="0.5" x1="20" x2="26" y1="236" y2="236" /><line stroke="black" stroke-width="0.5" x1="0" x2="6" y1="240" y2="240" /><line stroke="black" stroke-width="0.5" x1="20" x2="26" y1="240" y2="240" /><line stroke="black" stroke-width="0.5" x1="0" x2="6" y1="244" y2="244" /><line stroke="black" stroke-width="0.5" x1="20" x2="26" y1="244" y2="244" /><line stroke="black" stroke-width="0.5" x1="0" x2="6" y1="248" y2="248" /><line stroke="black" stroke-width="0.5" x1="20" x2="26" y1="248" y2="248" /><line stroke="black" stroke-width="0.5" x1="0" x2="6" y1="252" y2="252" /><line stroke="black" stroke-width="0.5" x1="20" x2="26" y1="252" y2="252" /><line stroke="black" stroke-width="0.5" x1="0" x2="6" y1="256" y2="256" /><line stroke="black" stroke-width="0.5" x1="20" x2="26" y1="256" y2="256" /><line stroke="black" stroke-width="0.5" x1="0" x2="6" y1="260" y2="260" /><line stroke="black" stroke-width="0.5" x1="20" x2="26" y1="260" y2="260" /><line stroke="black" stroke-width="0.5" x1="0" x2="6" y1="264" y2="264" /><line stroke="black" stroke-width="0.5" x1="20" x2="26" y1="264" y2="264" /><line stroke="black" stroke-width="0.5" x1="0" x2="6" y1="268" y2="268" /><line stroke="black" stroke-width="0.5" x1="20" x2="26" y1="268" y2="268" /><line stroke="black" stroke-width="0.5" x1="0" x2="6" y1="272" y2="272" /><line stroke="black" stroke-width="0.5" x1="20" x2="26" y1="272" y2="272" /><line stroke="black" stroke-width="0.5" x1="0" x2="6" y1="276" y2="276" /><line stroke="black" stroke-width="0.5" x1="20" x2="26" y1="276" y2="276" /><line stroke="black" stroke-width="0.5" x1="0" x2="6" y1="280" y2="280" /><line stroke="black" stroke-width="0.5" x1="20" x2="26" y1="280" y2="280" /><line stroke="black" stroke-width="0.5" x1="0" x2="6" y1="284" y2="284" /><line stroke="black" stroke-width="0.5" x1="20" x2="26" y1="284" y2="284" /><line stroke="black" stroke-width="0.5" x1="0" x2="6" y1="288" y2="288" /><line stroke="black" stroke-width="0.5" x1="20" x2="26" y1="288" y2="288" /><line stroke="black" stroke-width="0.5" x1="0" x2="6" y1="292" y2="292" /><line stroke="black" stroke-width="0.5" x1="20" x2="26" y1="292" y2="292" /><line stroke="black" stroke-width="0.5" x1="0" x2="6" y1="296" y2="296" /><line stroke="black" stroke-width="0.5" x1="20" x2="26" y1="296" y2="296" /><line stroke="black" stroke-width="0.5" x1="0" x2="6" y1="300" y2="300" /><line stroke="black" stroke-width="0.5" x1="20" x2="26" y1="300" y2="300" /><line stroke="black" stroke-width="0.5" x1="0" x2="6" y1="304" y2="304" /><line stroke="black" stroke-width="0.5" x1="20" x2="26" y1="304" y2="304" /><line stroke="black" stroke-width="0.5" x1="0" x2="6" y1="308" y2="308" /><line stroke="black" stroke-width="0.5" x1="20" x2="26" y1="308" y2="308" /><line stroke="black" stroke-width="0.5" x1="0" x2="6" y1="312" y2="312" /><line stroke="black" stroke-width="0.5" x1="20" x2="26" y1="312" y2="312" /><line stroke="black" stroke-width="0.5" x1="0" x2="6" y1="316" y2="316" /><line stroke="black" stroke-width="0.5" x1="20" x2="26" y1="316" y2="316" /><line stroke="black" stroke-width="0.5" x1="0" x2="6" y1="320" y2="320" /><line stroke="black" stroke-width="0.5" x1="20" x2="26" y1="320" y2="320" /><line stroke="black" stroke-width="0.5" x1="0" x2="6" y1="324" y2="324" /><line stroke="black" stroke-width="0.5" x1="20" x2="26" y1="324" y2="324" /><line stroke="black" stroke-width="0.5" x1="0" x2="6" y1="328" y2="328" /><line stroke="black" stroke-width="0.5" x1="20" x2="26" y1="328" y2="328" /><line stroke="black" stroke-width="0.5" x1="0" x2="6" y1="332" y2="332" /><line stroke="black" stroke-width="0.5" x1="20" x2="26" y1="332" y2="332" /><line stroke="black" stroke-width="0.5" x1="0" x2="6" y1="336" y2="336" /><line stroke="black" stroke-width="0.5" x1="20" x2="26" y1="336" y2="336" /><line stroke="black" stroke-width="0.5" x1="0" x2="6" y1="340" y2="340" /><line stroke="black" stroke-width="0.5" x1="20" x2="26" y1="340" y2="340" /><line stroke="black" stroke-width="0.5" x1="0" x2="6" y1="344" y2="344" /><line stroke="black" stroke-width="0.5" x1="20" x2="26" y1="344" y2="344" /><line stroke="black" stroke-width="0.5" x1="0" x2="6" y1="348" y2="348" /><line stroke="black" stroke-width="0.5" x1="20" x2="26" y1="348" y2="348" /><line stroke="black" stroke-width="0.5" x1="0" x2="6" y1="352" y2="352" /><line stroke="black" stroke-width="0.5" x1="20" x2="26" y1="352" y2="352" /><line stroke="black" stroke-width="0.5" x1="0" x2="6" y1="356" y2="356" /><line stroke="black" stroke-width="0.5" x1="20" x2="26" y1="356" y2="356" /><g font-size="10"><text x="13" y="90">45</text></g><g font-size="10"><text x="13" y="270">45</text></g></g><g id="id28"><rect fill="violet" height="36" width="26" x="0" y="0" /><line stroke="black" stroke-width="0.5" x1="0" x2="6" y1="4" y2="4" /><line stroke="black" stroke-width="0.5" x1="20" x2="26" y1="4" y2="4" /><line stroke="black" stroke-width="0.5" x1="0" x2="6" y1="8" y2="8" /><line stroke="black" stroke-width="0.5" x1="20" x2="26" y1="8" y2="8" /><line stroke="black" stroke-width="0.5" x1="0" x2="6" y1="12" y2="12" /><line stroke="black" stroke-width="0.5" x1="20" x2="26" y1="12" y2="12" /><line stroke="black" stroke-width="0.5" x1="0" x2="6" y1="16" y2="16" /><line stroke="black" stroke-width="0.5" x1="20" x2="26" y1="16" y2="16" /><line stroke="black" stroke-width="0.5" x1="0" x2="6" y1="20" y2="20" /><line stroke="black" stroke-width="0.5" x1="20" x2="26" y1="20" y2="20" /><line stroke="black" stroke-width="0.5" x1="0" x2="6" y1="24" y2="24" /><line stroke="black" stroke-width="0.5" x1="20" x2="26" y1="24" y2="24" /><line stroke="black" stroke-width="0.5" x1="0" x2="6" y1="28" y2="28" /><line stroke="black" stroke-width="0.5" x1="20" x2="26" y1="28" y2="28" /><line stroke="black" stroke-width="0.5" x1="0" x2="6" y1="32" y2="32" /><line stroke="black" stroke-width="0.5" x1="20" x2="26" y1="32" y2="32" /><g font-size="10"><text x="13" y="18">9</text></g></g><g id="id32"><use x="0" xlink:href="#id30" y="0" /><rect fill="grey" height="4" width="26" x="0" y="360" /><use x="0" xlink:href="#id31" y="363" /><rect fill="grey" height="4" width="26" x="0" y="399" /></g><g id="id30"><rect fill="white" height="360" width="26" x="0" y="0" /><line stroke="black" stroke-width="0.5" x1="0" x2="6" y1="4" y2="4" /><line stroke="black" stroke-width="0.5" x1="20" x2="26" y1="4" y2="4" /><line stroke="black" stroke-width="0.5" x1="0" x2="6" y1="8" y2="8" /><line stroke="black" stroke-width="0.5" x1="20" x2="26" y1="8" y2="8" /><line stroke="black" stroke-width="0.5" x1="0" x2="6" y1="12" y2="12" /><line stroke="black" stroke-width="0.5" x1="20" x2="26" y1="12" y2="12" /><line stroke="black" stroke-width="0.5" x1="0" x2="6" y1="16" y2="16" /><line stroke="black" stroke-width="0.5" x1="20" x2="26" y1="16" y2="16" /><line stroke="black" stroke-width="0.5" x1="0" x2="6" y1="20" y2="20" /><line stroke="black" stroke-width="0.5" x1="20" x2="26" y1="20" y2="20" /><line stroke="black" stroke-width="0.5" x1="0" x2="6" y1="24" y2="24" /><line stroke="black" stroke-width="0.5" x1="20" x2="26" y1="24" y2="24" /><line stroke="black" stroke-width="0.5" x1="0" x2="6" y1="28" y2="28" /><line stroke="black" stroke-width="0.5" x1="20" x2="26" y1="28" y2="28" /><line stroke="black" stroke-width="0.5" x1="0" x2="6" y1="32" y2="32" /><line stroke="black" stroke-width="0.5" x1="20" x2="26" y1="32" y2="32" /><line stroke="black" stroke-width="0.5" x1="0" x2="6" y1="36" y2="36" /><line stroke="black" stroke-width="0.5" x1="20" x2="26" y1="36" y2="36" /><line stroke="black" stroke-width="0.5" x1="0" x2="6" y1="40" y2="40" /><line stroke="black" stroke-width="0.5" x1="20" x2="26" y1="40" y2="40" /><line stroke="black" stroke-width="0.5" x1="0" x2="6" y1="44" y2="44" /><line stroke="black" stroke-width="0.5" x1="20" x2="26" y1="44" y2="44" /><line stroke="black" stroke-width="0.5" x1="0" x2="6" y1="48" y2="48" /><line stroke="black" stroke-width="0.5" x1="20" x2="26" y1="48" y2="48" /><line stroke="black" stroke-width="0.5" x1="0" x2="6" y1="52" y2="52" /><line stroke="black" stroke-width="0.5" x1="20" x2="26" y1="52" y2="52" /><line stroke="black" stroke-width="0.5" x1="0" x2="6" y1="56" y2="56" /><line stroke="black" stroke-width="0.5" x1="20" x2="26" y1="56" y2="56" /><line stroke="black" stroke-width="0.5" x1="0" x2="6" y1="60" y2="60" /><line stroke="black" stroke-width="0.5" x1="20" x2="26" y1="60" y2="60" /><line stroke="black" stroke-width="0.5" x1="0" x2="6" y1="64" y2="64" /><line stroke="black" stroke-width="0.5" x1="20" x2="26" y1="64" y2="64" /><line stroke="black" stroke-width="0.5" x1="0" x2="6" y1="68" y2="68" /><line stroke="black" stroke-width="0.5" x1="20" x2="26" y1="68" y2="68" /><line stroke="black" stroke-width="0.5" x1="0" x2="6" y1="72" y2="72" /><line stroke="black" stroke-width="0.5" x1="20" x2="26" y1="72" y2="72" /><line stroke="black" stroke-width="0.5" x1="0" x2="6" y1="76" y2="76" /><line stroke="black" stroke-width="0.5" x1="20" x2="26" y1="76" y2="76" /><line stroke="black" stroke-width="0.5" x1="0" x2="6" y1="80" y2="80" /><line stroke="black" stroke-width="0.5" x1="20" x2="26" y1="80" y2="80" /><line stroke="black" stroke-width="0.5" x1="0" x2="6" y1="84" y2="84" /><line stroke="black" stroke-width="0.5" x1="20" x2="26" y1="84" y2="84" /><line stroke="black" stroke-width="0.5" x1="0" x2="6" y1="88" y2="88" /><line stroke="black" stroke-width="0.5" x1="20" x2="26" y1="88" y2="88" /><line stroke="black" stroke-width="0.5" x1="0" x2="6" y1="92" y2="92" /><line stroke="black" stroke-width="0.5" x1="20" x2="26" y1="92" y2="92" /><line stroke="black" stroke-width="0.5" x1="0" x2="6" y1="96" y2="96" /><line stroke="black" stroke-width="0.5" x1="20" x2="26" y1="96" y2="96" /><line stroke="black" stroke-width="0.5" x1="0" x2="6" y1="100" y2="100" /><line stroke="black" stroke-width="0.5" x1="20" x2="26" y1="100" y2="100" /><line stroke="black" stroke-width="0.5" x1="0" x2="6" y1="104" y2="104" /><line stroke="black" stroke-width="0.5" x1="20" x2="26" y1="104" y2="104" /><line stroke="black" stroke-width="0.5" x1="0" x2="6" y1="108" y2="108" /><line stroke="black" stroke-width="0.5" x1="20" x2="26" y1="108" y2="108" /><line stroke="black" stroke-width="0.5" x1="0" x2="6" y1="112" y2="112" /><line stroke="black" stroke-width="0.5" x1="20" x2="26" y1="112" y2="112" /><line stroke="black" stroke-width="0.5" x1="0" x2="6" y1="116" y2="116" /><line stroke="black" stroke-width="0.5" x1="20" x2="26" y1="116" y2="116" /><line stroke="black" stroke-width="0.5" x1="0" x2="6" y1="120" y2="120" /><line stroke="black" stroke-width="0.5" x1="20" x2="26" y1="120" y2="120" /><line stroke="black" stroke-width="0.5" x1="0" x2="6" y1="124" y2="124" /><line stroke="black" stroke-width="0.5" x1="20" x2="26" y1="124" y2="124" /><line stroke="black" stroke-width="0.5" x1="0" x2="6" y1="128" y2="128" /><line stroke="black" stroke-width="0.5" x1="20" x2="26" y1="128" y2="128" /><line stroke="black" stroke-width="0.5" x1="0" x2="6" y1="132" y2="132" /><line stroke="black" stroke-width="0.5" x1="20" x2="26" y1="132" y2="132" /><line stroke="black" stroke-width="0.5" x1="0" x2="6" y1="136" y2="136" /><line stroke="black" stroke-width="0.5" x1="20" x2="26" y1="136" y2="136" /><line stroke="black" stroke-width="0.5" x1="0" x2="6" y1="140" y2="140" /><line stroke="black" stroke-width="0.5" x1="20" x2="26" y1="140" y2="140" /><line stroke="black" stroke-width="0.5" x1="0" x2="6" y1="144" y2="144" /><line stroke="black" stroke-width="0.5" x1="20" x2="26" y1="144" y2="144" /><line stroke="black" stroke-width="0.5" x1="0" x2="6" y1="148" y2="148" /><line stroke="black" stroke-width="0.5" x1="20" x2="26" y1="148" y2="148" /><line stroke="black" stroke-width="0.5" x1="0" x2="6" y1="152" y2="152" /><line stroke="black" stroke-width="0.5" x1="20" x2="26" y1="152" y2="152" /><line stroke="black" stroke-width="0.5" x1="0" x2="6" y1="156" y2="156" /><line stroke="black" stroke-width="0.5" x1="20" x2="26" y1="156" y2="156" /><line stroke="black" stroke-width="0.5" x1="0" x2="6" y1="160" y2="160" /><line stroke="black" stroke-width="0.5" x1="20" x2="26" y1="160" y2="160" /><line stroke="black" stroke-width="0.5" x1="0" x2="6" y1="164" y2="164" /><line stroke="black" stroke-width="0.5" x1="20" x2="26" y1="164" y2="164" /><line stroke="black" stroke-width="0.5" x1="0" x2="6" y1="168" y2="168" /><line stroke="black" stroke-width="0.5" x1="20" x2="26" y1="168" y2="168" /><line stroke="black" stroke-width="0.5" x1="0" x2="6" y1="172" y2="172" /><line stroke="black" stroke-width="0.5" x1="20" x2="26" y1="172" y2="172" /><line stroke="black" stroke-width="0.5" x1="0" x2="6" y1="176" y2="176" /><line stroke="black" stroke-width="0.5" x1="20" x2="26" y1="176" y2="176" /><line stroke="black" stroke-width="0.5" x1="0" x2="26" y1="180" y2="180" /><line stroke="black" stroke-width="0.5" x1="0" x2="6" y1="184" y2="184" /><line stroke="black" stroke-width="0.5" x1="20" x2="26" y1="184" y2="184" /><line stroke="black" stroke-width="0.5" x1="0" x2="6" y1="188" y2="188" /><line stroke="black" stroke-width="0.5" x1="20" x2="26" y1="188" y2="188" /><line stroke="black" stroke-width="0.5" x1="0" x2="6" y1="192" y2="192" /><line stroke="black" stroke-width="0.5" x1="20" x2="26" y1="192" y2="192" /><line stroke="black" stroke-width="0.5" x1="0" x2="6" y1="196" y2="196" /><line stroke="black" stroke-width="0.5" x1="20" x2="26" y1="196" y2="196" /><line stroke="black" stroke-width="0.5" x1="0" x2="6" y1="200" y2="200" /><line stroke="black" stroke-width="0.5" x1="20" x2="26" y1="200" y2="200" /><line stroke="black" stroke-width="0.5" x1="0" x2="6" y1="204" y2="204" /><line stroke="black" stroke-width="0.5" x1="20" x2="26" y1="204" y2="204" /><line stroke="black" stroke-width="0.5" x1="0" x2="6" y1="208" y2="208" /><line stroke="black" stroke-width="0.5" x1="20" x2="26" y1="208" y2="208" /><line stroke="black" stroke-width="0.5" x1="0" x2="6" y1="212" y2="212" /><line stroke="black" stroke-width="0.5" x1="20" x2="26" y1="212" y2="212" /><line stroke="black" stroke-width="0.5" x1="0" x2="6" y1="216" y2="216" /><line stroke="black" stroke-width="0.5" x1="20" x2="26" y1="216" y2="216" /><line stroke="black" stroke-width="0.5" x1="0" x2="6" y1="220" y2="220" /><line stroke="black" stroke-width="0.5" x1="20" x2="26" y1="220" y2="220" /><line stroke="black" stroke-width="0.5" x1="0" x2="6" y1="224" y2="224" /><line stroke="black" stroke-width="0.5" x1="20" x2="26" y1="224" y2="224" /><line stroke="black" stroke-width="0.5" x1="0" x2="6" y1="228" y2="228" /><line stroke="black" stroke-width="0.5" x1="20" x2="26" y1="228" y2="228" /><line stroke="black" stroke-width="0.5" x1="0" x2="6" y1="232" y2="232" /><line stroke="black" stroke-width="0.5" x1="20" x2="26" y1="232" y2="232" /><line stroke="black" stroke-width="0.5" x1="0" x2="6" y1="236" y2="236" /><line stroke="black" stroke-width="0.5" x1="20" x2="26" y1="236" y2="236" /><line stroke="black" stroke-width="0.5" x1="0" x2="6" y1="240" y2="240" /><line stroke="black" stroke-width="0.5" x1="20" x2="26" y1="240" y2="240" /><line stroke="black" stroke-width="0.5" x1="0" x2="6" y1="244" y2="244" /><line stroke="black" stroke-width="0.5" x1="20" x2="26" y1="244" y2="244" /><line stroke="black" stroke-width="0.5" x1="0" x2="6" y1="248" y2="248" /><line stroke="black" stroke-width="0.5" x1="20" x2="26" y1="248" y2="248" /><line stroke="black" stroke-width="0.5" x1="0" x2="6" y1="252" y2="252" /><line stroke="black" stroke-width="0.5" x1="20" x2="26" y1="252" y2="252" /><line stroke="black" stroke-width="0.5" x1="0" x2="6" y1="256" y2="256" /><line stroke="black" stroke-width="0.5" x1="20" x2="26" y1="256" y2="256" /><line stroke="black" stroke-width="0.5" x1="0" x2="6" y1="260" y2="260" /><line stroke="black" stroke-width="0.5" x1="20" x2="26" y1="260" y2="260" /><line stroke="black" stroke-width="0.5" x1="0" x2="6" y1="264" y2="264" /><line stroke="black" stroke-width="0.5" x1="20" x2="26" y1="264" y2="264" /><line stroke="black" stroke-width="0.5" x1="0" x2="6" y1="268" y2="268" /><line stroke="black" stroke-width="0.5" x1="20" x2="26" y1="268" y2="268" /><line stroke="black" stroke-width="0.5" x1="0" x2="6" y1="272" y2="272" /><line stroke="black" stroke-width="0.5" x1="20" x2="26" y1="272" y2="272" /><line stroke="black" stroke-width="0.5" x1="0" x2="6" y1="276" y2="276" /><line stroke="black" stroke-width="0.5" x1="20" x2="26" y1="276" y2="276" /><line stroke="black" stroke-width="0.5" x1="0" x2="6" y1="280" y2="280" /><line stroke="black" stroke-width="0.5" x1="20" x2="26" y1="280" y2="280" /><line stroke="black" stroke-width="0.5" x1="0" x2="6" y1="284" y2="284" /><line stroke="black" stroke-width="0.5" x1="20" x2="26" y1="284" y2="284" /><line stroke="black" stroke-width="0.5" x1="0" x2="6" y1="288" y2="288" /><line stroke="black" stroke-width="0.5" x1="20" x2="26" y1="288" y2="288" /><line stroke="black" stroke-width="0.5" x1="0" x2="6" y1="292" y2="292" /><line stroke="black" stroke-width="0.5" x1="20" x2="26" y1="292" y2="292" /><line stroke="black" stroke-width="0.5" x1="0" x2="6" y1="296" y2="296" /><line stroke="black" stroke-width="0.5" x1="20" x2="26" y1="296" y2="296" /><line stroke="black" stroke-width="0.5" x1="0" x2="6" y1="300" y2="300" /><line stroke="black" stroke-width="0.5" x1="20" x2="26" y1="300" y2="300" /><line stroke="black" stroke-width="0.5" x1="0" x2="6" y1="304" y2="304" /><line stroke="black" stroke-width="0.5" x1="20" x2="26" y1="304" y2="304" /><line stroke="black" stroke-width="0.5" x1="0" x2="6" y1="308" y2="308" /><line stroke="black" stroke-width="0.5" x1="20" x2="26" y1="308" y2="308" /><line stroke="black" stroke-width="0.5" x1="0" x2="6" y1="312" y2="312" /><line stroke="black" stroke-width="0.5" x1="20" x2="26" y1="312" y2="312" /><line stroke="black" stroke-width="0.5" x1="0" x2="6" y1="316" y2="316" /><line stroke="black" stroke-width="0.5" x1="20" x2="26" y1="316" y2="316" /><line stroke="black" stroke-width="0.5" x1="0" x2="6" y1="320" y2="320" /><line stroke="black" stroke-width="0.5" x1="20" x2="26" y1="320" y2="320" /><line stroke="black" stroke-width="0.5" x1="0" x2="6" y1="324" y2="324" /><line stroke="black" stroke-width="0.5" x1="20" x2="26" y1="324" y2="324" /><line stroke="black" stroke-width="0.5" x1="0" x2="6" y1="328" y2="328" /><line stroke="black" stroke-width="0.5" x1="20" x2="26" y1="328" y2="328" /><line stroke="black" stroke-width="0.5" x1="0" x2="6" y1="332" y2="332" /><line stroke="black" stroke-width="0.5" x1="20" x2="26" y1="332" y2="332" /><line stroke="black" stroke-width="0.5" x1="0" x2="6" y1="336" y2="336" /><line stroke="black" stroke-width="0.5" x1="20" x2="26" y1="336" y2="336" /><line stroke="black" stroke-width="0.5" x1="0" x2="6" y1="340" y2="340" /><line stroke="black" stroke-width="0.5" x1="20" x2="26" y1="340" y2="340" /><line stroke="black" stroke-width="0.5" x1="0" x2="6" y1="344" y2="344" /><line stroke="black" stroke-width="0.5" x1="20" x2="26" y1="344" y2="344" /><line stroke="black" stroke-width="0.5" x1="0" x2="6" y1="348" y2="348" /><line stroke="black" stroke-width="0.5" x1="20" x2="26" y1="348" y2="348" /><line stroke="black" stroke-width="0.5" x1="0" x2="6" y1="352" y2="352" /><line stroke="black" stroke-width="0.5" x1="20" x2="26" y1="352" y2="352" /><line stroke="black" stroke-width="0.5" x1="0" x2="6" y1="356" y2="356" /><line stroke="black" stroke-width="0.5" x1="20" x2="26" y1="356" y2="356" /><g font-size="10"><text x="13" y="90">45</text></g><g font-size="10"><text x="13" y="270">45</text></g></g><g id="id31"><rect fill="violet" height="36" width="26" x="0" y="0" /><line stroke="black" stroke-width="0.5" x1="0" x2="6" y1="4" y2="4" /><line stroke="black" stroke-width="0.5" x1="20" x2="26" y1="4" y2="4" /><line stroke="black" stroke-width="0.5" x1="0" x2="6" y1="8" y2="8" /><line stroke="black" stroke-width="0.5" x1="20" x2="26" y1="8" y2="8" /><line stroke="black" stroke-width="0.5" x1="0" x2="6" y1="12" y2="12" /><line stroke="black" stroke-width="0.5" x1="20" x2="26" y1="12" y2="12" /><line stroke="black" stroke-width="0.5" x1="0" x2="6" y1="16" y2="16" /><line stroke="black" stroke-width="0.5" x1="20" x2="26" y1="16" y2="16" /><line stroke="black" stroke-width="0.5" x1="0" x2="6" y1="20" y2="20" /><line stroke="black" stroke-width="0.5" x1="20" x2="26" y1="20" y2="20" /><line stroke="black" stroke-width="0.5" x1="0" x2="6" y1="24" y2="24" /><line stroke="black" stroke-width="0.5" x1="20" x2="26" y1="24" y2="24" /><line stroke="black" stroke-width="0.5" x1="0" x2="6" y1="28" y2="28" /><line stroke="black" stroke-width="0.5" x1="20" x2="26" y1="28" y2="28" /><line stroke="black" stroke-width="0.5" x1="0" x2="6" y1="32" y2="32" /><line stroke="black" stroke-width="0.5" x1="20" x2="26" y1="32" y2="32" /><g font-size="10"><text x="13" y="18">9</text></g></g></defs><g font-size="10"><text x="13" y="100">50</text></g><g font-size="10"><text x="13" y="300">50</text></g><use x="50" xlink:href="#id26" y="0" /><g font-size="10"><text x="13" y="90">45</text></g><g font-size="10"><text x="13" y="270">45</text></g><g font-size="10"><text x="13" y="18">9</text></g><use x="80" xlink:href="#id29" y="0" /><g font-size="10"><text x="13" y="90">45</text></g><g font-size="10"><text x="13" y="270">45</text></g><g font-size="10"><text x="13" y="18">9</text></g><use x="110" xlink:href="#id32" y="0" /></svg>